<svg xmlns="http://www.w3.org/2000/svg">
<defs>
<font id="TypeIcons" horiz-adv-x="2000" >
  <font-face 
    font-family="Type Icons"
    font-weight="400"
    font-stretch="normal"
    units-per-em="2048"
    panose-1="2 0 5 0 0 0 0 0 0 0"
    ascent="1638"
    descent="-410"
    x-height="1090"
    cap-height="1698"
    bbox="10 -406 1990 1702"
    underline-thickness="150"
    underline-position="-442"
    unicode-range="U+001D-F002"
  />
<missing-glyph 
d="M261 -8v0q0 10 5 15q6 4 12 4q5 0 9 -1q4 -3 6 -8q2 -3 2 -10h-34zM261 -11v0h49q0 13 -7 21q-8 8 -20 8q-15 0 -25 -11q-9 -10 -9 -29q0 -17 9 -27q10 -11 22 -11q13 0 20 10q9 9 10 19l-2 2q-4 -10 -9 -14q-4 -4 -12 -4q-11 0 -19 10q-9 9 -7 26zM345 56v0h-3l-22 -9
l1 -3q4 1 5 1q3 0 4 -1q2 -1 2 -4q1 -2 1 -14v-67q0 -7 -1 -8q-2 -3 -3 -4q-3 -1 -8 -1v-3h35v3q-5 0 -6 1q-3 1 -4 4q-1 1 -1 8v97zM367 -15v0v-12h41v12h-41zM441 56v0h-4l-23 -9l2 -3q4 1 6 1t3 -1t2 -4v-14v-67v-8q-1 -3 -2 -3q-4 -2 -9 -2v-3h36v3q-5 0 -7 1q-3 1 -3 4
q-1 0 -1 8v38q6 8 10 9q4 3 8 3t7 -3q2 -1 3 -5q2 -4 2 -16v-26v-8q-2 -1 -3 -3q-2 -2 -8 -2h-1v-3h35v3q-3 0 -6 1q-1 1 -3 4q-1 1 -1 8v26q0 13 -1 18q-3 7 -8 11q-4 4 -9 4q-6 0 -12 -4q-4 -3 -13 -12v54zM542 -41v0q-11 -8 -16 -8q-4 0 -8 2q-4 4 -4 11q0 5 3 8
q4 4 10 8q3 1 15 6v-27zM542 -48v0q0 -5 2 -8q3 -2 6 -2q9 0 18 10v5q-5 -5 -7 -6h-2t-3 1q-1 0 -1 3v13v24q0 11 -1 15q-3 4 -7 7q-7 4 -17 4q-12 0 -20 -7q-5 -5 -5 -12q0 -3 1 -6q3 -1 4 -1q3 0 5 1q2 3 2 6v6q0 2 4 5q2 3 8 3t9 -4q4 -4 4 -16v-3q-19 -5 -28 -10
q-6 -5 -10 -11q-3 -4 -3 -9q0 -9 5 -13q4 -5 12 -5q5 0 11 1q1 1 13 9zM594 18v0h-4l-22 -9l1 -3q3 1 6 1q2 0 4 -1q1 -1 1 -4q1 -3 1 -14v-29v-8q-1 -1 -4 -3q-2 -2 -8 -2v-3h38v3q-5 0 -7 1l-4 4q-2 2 -2 9v34q4 8 8 12q2 1 3 1t4 -2q4 -3 6 -3q4 0 6 1q2 3 2 7q0 1 -2 5
q-4 3 -8 3q-9 0 -19 -17v17zM647 18v0h-1l-23 -9l2 -3q2 1 3 1q3 0 4 -1q2 -1 2 -4q1 -3 1 -14v-29v-8q-1 -1 -4 -3t-6 -2v-3h36v3q-5 0 -8 1q-2 3 -3 4q-3 2 -3 9v34q5 8 8 12q2 1 4 1q1 0 5 -2q3 -3 5 -3q3 0 5 1q3 3 3 7q0 1 -3 5q-3 3 -7 3q-10 0 -20 -17v17zM723 -41v0

<glyph glyph-name=".notdef" 
d="M261 -8v0q0 10 5 15q6 4 12 4q5 0 9 -1q4 -3 6 -8q2 -3 2 -10h-34zM261 -11v0h49q0 13 -7 21q-8 8 -20 8q-15 0 -25 -11q-9 -10 -9 -29q0 -17 9 -27q10 -11 22 -11q13 0 20 10q9 9 10 19l-2 2q-4 -10 -9 -14q-4 -4 -12 -4q-11 0 -19 10q-9 9 -7 26zM345 56v0h-3l-22 -9
l1 -3q4 1 5 1q3 0 4 -1q2 -1 2 -4q1 -2 1 -14v-67q0 -7 -1 -8q-2 -3 -3 -4q-3 -1 -8 -1v-3h35v3q-5 0 -6 1q-3 1 -4 4q-1 1 -1 8v97zM367 -15v0v-12h41v12h-41zM441 56v0h-4l-23 -9l2 -3q4 1 6 1t3 -1t2 -4v-14v-67v-8q-1 -3 -2 -3q-4 -2 -9 -2v-3h36v3q-5 0 -7 1q-3 1 -3 4
q-1 0 -1 8v38q6 8 10 9q4 3 8 3t7 -3q2 -1 3 -5q2 -4 2 -16v-26v-8q-2 -1 -3 -3q-2 -2 -8 -2h-1v-3h35v3q-3 0 -6 1q-1 1 -3 4q-1 1 -1 8v26q0 13 -1 18q-3 7 -8 11q-4 4 -9 4q-6 0 -12 -4q-4 -3 -13 -12v54zM542 -41v0q-11 -8 -16 -8q-4 0 -8 2q-4 4 -4 11q0 5 3 8
q4 4 10 8q3 1 15 6v-27zM542 -48v0q0 -5 2 -8q3 -2 6 -2q9 0 18 10v5q-5 -5 -7 -6h-2t-3 1q-1 0 -1 3v13v24q0 11 -1 15q-3 4 -7 7q-7 4 -17 4q-12 0 -20 -7q-5 -5 -5 -12q0 -3 1 -6q3 -1 4 -1q3 0 5 1q2 3 2 6v6q0 2 4 5q2 3 8 3t9 -4q4 -4 4 -16v-3q-19 -5 -28 -10
q-6 -5 -10 -11q-3 -4 -3 -9q0 -9 5 -13q4 -5 12 -5q5 0 11 1q1 1 13 9zM594 18v0h-4l-22 -9l1 -3q3 1 6 1q2 0 4 -1q1 -1 1 -4q1 -3 1 -14v-29v-8q-1 -1 -4 -3q-2 -2 -8 -2v-3h38v3q-5 0 -7 1l-4 4q-2 2 -2 9v34q4 8 8 12q2 1 3 1t4 -2q4 -3 6 -3q4 0 6 1q2 3 2 7q0 1 -2 5
q-4 3 -8 3q-9 0 -19 -17v17zM647 18v0h-1l-23 -9l2 -3q2 1 3 1q3 0 4 -1q2 -1 2 -4q1 -3 1 -14v-29v-8q-1 -1 -4 -3t-6 -2v-3h36v3q-5 0 -8 1q-2 3 -3 4q-3 2 -3 9v34q5 8 8 12q2 1 4 1q1 0 5 -2q3 -3 5 -3q3 0 5 1q3 3 3 7q0 1 -3 5q-3 3 -7 3q-10 0 -20 -17v17zM723 -41v0
q-10 -8 -17 -8q-4 0 -8 2q-3 4 -3 11q0 5 3 8q3 4 8 8q4 1 17 6v-27zM723 -48v0q0 -5 1 -8q2 -2 7 -2q8 0 16 10v5q-4 -5 -6 -6h-2t-1 1q-2 0 -2 3q-1 2 -1 13v24q0 11 -1 15q-3 4 -8 7q-6 4 -15 4q-13 0 -19 -7q-7 -5 -7 -12v-6q3 -1 5 -1q4 0 5 1q3 3 3 6v6q0 2 3 5
q4 3 8 3q6 0 10 -4t4 -16v-3q-20 -5 -28 -10q-9 -5 -10 -11q-3 -4 -3 -9q0 -9 4 -13q6 -5 13 -5q6 0 8 1q3 1 16 9zM774 56v0h-4l-21 -9l2 -3q2 1 5 1q1 0 4 -1q1 -1 1 -4v-14v-67q0 -7 -1 -8q0 -3 -3 -4q-2 -1 -8 -1v-3h37v3q-5 0 -8 1q-1 1 -2 4q-2 1 -2 8v25l23 -29
q4 -4 4 -5q0 -2 -2 -3q-1 -1 -4 -1v-3h35v3q-6 0 -7 1q-3 1 -7 4q-2 2 -10 13l-19 24l19 17q5 5 9 5q5 3 11 3v2h-31v-2q3 0 4 -2l2 -1v-3q-2 -1 -8 -6l-19 -17v72zM849 -43v0q-4 0 -6 -2q-2 -3 -2 -5q0 -4 2 -7t6 -3t7 3q2 3 2 7q0 2 -2 5q-3 2 -7 2zM895 -2v0l7 7q5 2 9 2
q9 0 14 -9q7 -8 7 -21q0 -14 -7 -24q-5 -6 -13 -6q-5 0 -9 3q-4 1 -8 3v45zM895 3v0v53h-4l-22 -9l1 -3q4 1 7 1q1 0 2 -1q2 -1 2 -4v-14v-75q8 -5 14 -8q5 -3 12 -3q13 0 25 11q13 12 13 31q0 16 -8 27q-9 9 -19 9q-14 0 -23 -15zM981 56v0h-3l-22 -9l1 -3q3 1 5 1t3 -1
t2 -4v-14v-67q0 -7 -1 -8q-1 -3 -2 -4q-2 -1 -7 -1v-3h35v3q-5 0 -7 1q-3 1 -3 4q-1 1 -1 8v97zM1035 13v0q7 0 14 -8q8 -12 8 -30q0 -16 -5 -23q-6 -5 -14 -5q-9 0 -15 10q-6 12 -6 28q0 9 2 16q2 6 6 9q6 3 10 3zM1037 18v0q-9 0 -18 -5q-7 -4 -12 -15q-5 -9 -5 -20
q0 -13 8 -25q9 -13 26 -13q10 0 18 6q8 5 13 15q4 10 4 20q0 13 -8 25q-10 12 -26 12zM1115 14v0q6 0 11 -5q6 -7 6 -20q0 -11 -4 -14q-4 -4 -11 -4q-5 0 -10 4q-5 7 -5 19q0 11 3 16q4 4 10 4zM1100 -57v0q11 -1 29 -3q12 0 16 -1q4 -3 4 -7q0 -5 -7 -10q-8 -5 -21 -5
q-16 0 -23 5q-4 4 -4 8q0 1 1 5t5 8zM1102 -31v0q-8 -6 -11 -10q-1 -4 -1 -7q0 -1 1 -4q1 -2 5 -5q-6 -8 -8 -8q-4 -5 -5 -8q-1 -2 -1 -4q0 -5 6 -9q10 -5 27 -5q19 0 31 10q8 8 8 17q0 7 -4 11t-12 5q-4 0 -21 1h-12q-3 2 -5 3q-1 1 -1 3q0 1 1 4l5 5q7 -1 11 -1q14 0 21 6
q8 8 8 17t-4 16h9h4v0q1 1 1 4l-1 1v0q0 2 -4 2h-16q-6 5 -18 5t-21 -8q-7 -8 -7 -20q0 -5 4 -12q3 -6 10 -9zM1211 18v0h-3l-1 -3q-2 -1 -3 -1t-5 1q-6 3 -11 3q-10 0 -16 -7q-6 -5 -6 -14q0 -7 4 -12q4 -4 16 -10q10 -6 14 -10t4 -9t-4 -6q-3 -4 -8 -4q-8 0 -14 5t-8 17
h-3v-26h3q1 2 2 2q2 0 4 -1q10 -3 16 -3q9 0 17 7q7 5 7 16q0 13 -16 21l-12 5q-8 3 -10 7q-3 3 -3 7t4 7t9 3q7 0 12 -4t8 -16h3v25zM1247 -4v0q6 7 8 9q6 1 9 1q7 0 11 -7q8 -9 8 -24t-7 -24q-5 -5 -12 -5t-11 4q-4 2 -6 6v13v27zM1221 9v0l1 -3q3 1 6 1q2 0 4 -1
q0 -1 1 -3v-9v-68q0 -9 -1 -11v-2q-4 -2 -10 -2h-1v-2h38v2q-6 0 -8 2q-2 0 -2 2q-2 2 -2 10v22q4 -4 7 -4q4 -3 10 -3q14 0 23 11q10 12 10 31q0 16 -8 28q-7 8 -18 8q-7 0 -13 -4q-7 -4 -11 -13v16h-4zM1341 13v0q8 0 14 -8q9 -12 9 -30q0 -16 -5 -23q-5 -5 -13 -5
q-11 0 -17 10q-5 12 -5 28q0 9 2 16q3 6 5 9q6 3 10 3zM1343 18v0q-9 0 -17 -5q-8 -4 -13 -15q-4 -9 -4 -20q0 -13 7 -25q10 -13 27 -13q9 0 17 6q8 5 14 15q5 10 5 20q0 13 -9 25q-10 12 -27 12zM1410 39v0h-2q-3 -8 -6 -11q-4 -5 -7 -10q-6 -4 -8 -5v-3h10v-49q0 -9 1 -11
q3 -4 6 -6q4 -2 6 -2q7 0 12 4t7 11h-2q-2 -4 -5 -5q-2 -1 -5 -1t-5 1q-2 3 -2 11v47h17v5h-17v24zM1448 -43v0q-2 0 -5 -2q-2 -3 -2 -5q0 -4 2 -7q3 -3 5 -3q4 0 7 3q4 3 4 7q0 2 -4 5q-3 2 -7 2zM1536 -29v0h-2q-4 -10 -9 -12q-6 -7 -14 -7q-10 0 -17 11q-6 9 -6 23
q0 12 6 21q6 4 12 4q5 0 9 -1q3 -3 3 -7q1 -5 3 -6q2 -4 5 -4q4 0 7 3q1 1 1 5q0 5 -7 10q-6 7 -17 7q-14 0 -25 -11q-10 -11 -10 -29q0 -17 10 -27q8 -11 20 -11t20 8q9 8 11 23zM1580 13v0q8 0 14 -8q8 -12 8 -30q0 -16 -4 -23q-5 -5 -14 -5t-16 10q-5 12 -5 28q0 9 1 16
q3 6 8 9q4 3 8 3zM1582 18v0q-9 0 -18 -5q-7 -4 -12 -15q-5 -9 -5 -20q0 -13 9 -25q8 -13 26 -13q10 0 19 6q6 5 12 15q5 10 5 20q0 13 -9 25t-27 12zM1649 2v0v16h-3l-23 -9l1 -3q4 1 7 1q1 0 3 -1q1 0 2 -4v-14v-29v-8q-1 -3 -4 -4q-2 -1 -8 -1v-3h37v3q-5 0 -8 1
q-1 1 -2 4q-2 1 -2 8v39q4 4 11 8q4 3 8 3q6 0 10 -6q3 -4 3 -13v-31v-8l-4 -4q-1 -1 -8 -1v-3h36v3q-4 0 -7 1t-3 4q-1 0 -1 8v34v4v1q7 7 9 8q6 3 10 3q6 0 9 -6q2 -4 2 -13v-31v-8q-1 -1 -4 -3q-1 -2 -5 -2h-2v-3h35v3q-5 0 -7 1t-2 4v8v31q0 11 -3 15q-2 6 -8 9
q-4 4 -9 4q-6 0 -12 -4q-6 -3 -14 -12q-2 8 -7 11q-5 5 -10 5q-6 0 -9 -3q-4 -1 -7 -4q-3 -1 -11 -9zM318 -176v0h-1q-2 -3 -3 -4q-2 -2 -3 -2q-2 0 -3 2q-8 4 -17 4q-12 0 -21 -6q-8 -6 -13 -15q-6 -10 -6 -20q0 -17 8 -27q10 -15 29 -15q12 0 20 4q7 6 14 17h-2
q-8 -9 -14 -12q-4 -3 -12 -3q-10 0 -16 4q-8 5 -11 11q-4 9 -4 19q0 13 4 22q5 8 11 12q6 5 13 5q11 0 17 -6q7 -6 10 -17h2zM354 -206v0q6 0 10 -6q6 -7 6 -22q0 -10 -3 -16q-4 -5 -10 -5q-8 0 -11 9q-6 8 -6 20q0 9 3 11q2 5 3 6q3 3 8 3zM355 -203v0q-7 0 -12 -3
q-6 -4 -10 -10q-3 -7 -3 -15q0 -9 6 -18q7 -10 18 -10q9 0 15 4q4 3 8 12q3 6 3 14q0 10 -5 17q-6 9 -20 9zM404 -215v0v12h-3l-15 -6v-3q3 2 5 2l1 -2q2 0 2 -3v-10v-19q0 -6 -2 -9q-1 -2 -4 -2h-2v-3h27v3h-6q-1 2 -3 3v8v28q8 6 14 6q4 0 6 -3q3 -3 3 -10v-21v-6
q-2 -3 -3 -3q-2 -2 -6 -2v0v-3h25v3h-5q-1 2 -3 3v8v22q0 6 -1 10q-2 5 -4 8q-3 1 -8 1q-9 0 -18 -12zM464 -186v0h-3q-2 -6 -3 -8q-2 -4 -6 -7q-3 -3 -6 -5v-3h9v-34q0 -6 1 -9q0 -3 2 -4q3 -2 6 -2q4 0 7 3q5 3 8 9h-3q-2 -3 -3 -4q-2 -2 -5 -2q-1 0 -3 3q-1 2 -1 8v32h12
v5h-12v18zM511 -246v0q-7 -6 -12 -6q-3 0 -6 3t-3 8q0 3 3 6q2 3 8 4q0 2 10 6v-21zM511 -249v0q0 -6 2 -7q1 -3 4 -3q6 0 12 10v3l-4 -4h-2h-1v3v9v18q0 7 -2 10q-1 3 -6 6q-4 1 -12 1q-9 0 -13 -4q-6 -5 -6 -9q0 -1 2 -3q1 -1 2 -1q3 0 5 1q1 2 1 3v3q0 3 2 4q3 3 6 3
q4 0 7 -3t3 -10v-3q-13 -4 -19 -9q-7 -3 -9 -7q-3 -2 -3 -6q0 -6 5 -11q4 -4 10 -4q3 0 6 1q1 2 10 9zM578 -237v0h-1q-3 -6 -6 -9q-5 -3 -11 -3q-7 0 -13 8q-3 6 -3 16q0 9 3 15q4 4 10 4q5 0 6 -3q2 -1 3 -4v-4q2 -2 5 -2t4 2l2 1q0 4 -5 9q-6 4 -13 4q-11 0 -18 -7
t-7 -21q0 -12 7 -21q6 -7 15 -7t13 6q8 6 9 16zM602 -186v0h-3q-2 -6 -3 -8q-3 -4 -6 -7t-6 -5v-3h8v-34q0 -6 1 -9t3 -4q3 -2 6 -2q4 0 9 3q1 3 4 9h-3q-1 -3 -1 -4q-2 -2 -3 -2q-3 0 -5 3q-1 2 -1 8v32h12v5h-12v18zM661 -203v0q-3 0 -4 -1q-2 -2 -2 -5t2 -4q1 -3 4 -3
t5 3q3 1 3 4t-3 5q-2 1 -5 1zM661 -246v0q-3 0 -4 -1q-2 -2 -2 -5t2 -6q1 -1 4 -1t5 1q3 3 3 6t-3 5q-2 1 -5 1zM748 -247v0q-5 -5 -9 -5q-6 0 -12 6q-6 8 -6 18q0 12 6 18q4 4 10 4q3 0 6 -1q2 -2 3 -6q2 -3 2 -6v-28zM748 -252v0v-7h3l16 7l-2 2q-1 -2 -3 -2q-1 0 -1 2
q-2 1 -2 3q-1 3 -1 10v63h-3l-15 -6l2 -3q1 1 3 1q1 0 1 -1q2 0 2 -3v-11v-10q-5 4 -11 4q-12 0 -18 -9q-7 -8 -7 -20t6 -20q6 -7 15 -7q4 0 9 1zM801 -246v0q-7 -6 -13 -6q-2 0 -5 3t-3 8q0 3 3 6q2 3 6 4q2 2 12 6v-21zM801 -249v0q0 -6 2 -7q1 -3 4 -3q5 0 12 10v3
q-3 -3 -5 -4h-1h-3v3v9v18v10q-1 3 -6 6q-4 1 -12 1q-9 0 -13 -4q-6 -5 -6 -9q0 -1 1 -3q2 -1 3 -1q3 0 5 1q1 2 1 3v3q0 3 2 4q3 3 6 3q4 0 7 -3t3 -10v-3q-13 -4 -19 -9q-8 -3 -9 -7q-2 -2 -2 -6q0 -6 3 -11q5 -4 11 -4q3 0 4 1q3 2 12 9zM838 -203v0h-3l-15 -6v-3
q3 2 5 2q1 0 3 -2q1 0 1 -3v-8v-21v-6q0 -3 -1 -3q-3 -2 -8 -2v-3h29v3h-6q-3 2 -3 3q-2 3 -2 8v25q3 4 6 7q2 2 3 2l3 -3q3 -2 5 -2q1 0 3 2q1 1 1 4t-1 5q-3 1 -5 1q-7 0 -15 -12v12zM877 -203v0h-2l-16 -6l2 -3q1 2 3 2q3 0 3 -2q1 0 1 -3q1 -1 1 -8v-21q0 -6 -1 -6
q0 -3 -1 -3q-3 -2 -6 -2v-3h26v3h-6q-1 2 -3 3q-1 3 -1 8v25q3 4 6 7q1 2 3 2q1 0 4 -3q2 -2 5 -2q1 0 3 2q1 1 1 4t-1 5q-2 1 -6 1q-8 0 -15 -12v12zM932 -246v0q-8 -6 -12 -6q-1 0 -4 3t-3 8q0 3 1 6q3 3 6 4q3 2 12 6v-21zM932 -249v0q0 -6 1 -7q3 -3 6 -3q5 0 12 10v3
q-4 -3 -6 -4h-1h-2v3v9v18q0 7 -1 10q-2 3 -5 6q-6 1 -13 1t-13 -4q-6 -5 -6 -9q0 -1 1 -3q2 -1 5 -1t4 1v3v3q0 3 3 4q3 3 5 3q5 0 7 -3q3 -3 3 -10v-3q-13 -4 -19 -9q-6 -3 -9 -7q-2 -2 -2 -6q0 -6 5 -11q3 -4 9 -4q4 0 6 1q1 2 10 9zM969 -186v0h-1q-3 -6 -3 -8
q-2 -4 -6 -7q-3 -3 -6 -5v-3h9v-34v-9q1 -3 3 -4q3 -2 6 -2q4 0 7 3q4 3 7 9h-3q-1 -3 -3 -4q-1 -2 -4 -2q-1 0 -3 3q-3 2 -3 8v32h13v5h-13v18zM1002 -174v0q-3 0 -5 -2q-1 -1 -1 -4t1 -5q2 -1 5 -1t4 1q2 2 2 5t-2 4q-1 2 -4 2zM1006 -203v0h-3l-16 -6v-3q3 2 4 2
q2 0 3 -2q2 0 2 -1v-12v-19v-8q-2 -1 -3 -3h-6v-3h27v3h-5q-1 2 -1 3q-2 2 -2 8v41zM1030 -186v0l2 -2q2 2 5 2q2 0 3 -2q2 0 2 -3v-9v-43v-9q-2 -1 -3 -3h-7v-3h29v3h-7q-2 2 -2 3v9v67h-1zM1092 -219v0q0 9 2 21q1 9 4 13q3 5 8 5q3 0 6 -2q4 -3 6 -10q1 -9 1 -23
q0 -17 -1 -26q-2 -8 -6 -11q-3 -3 -6 -3q-8 0 -9 9q-5 9 -5 27zM1081 -217v0q0 -17 6 -27q8 -15 19 -15q6 0 12 4q6 5 9 15q4 9 4 24q0 19 -9 30q-6 10 -16 10q-6 0 -11 -4q-6 -5 -10 -14q-4 -10 -4 -23zM1196 -204v0q3 0 6 -2q2 -3 2 -7t-3 -13q-2 -6 -6 -12q-4 -5 -9 -8
q-1 -3 -6 -3q-3 0 -4 3q-3 3 -3 6q0 5 4 14q5 10 11 17q4 5 8 5zM1217 -201v0l-10 -2v-6q-2 3 -5 6q-3 2 -6 2q-5 0 -11 -5q-9 -7 -15 -16q-6 -12 -6 -19q0 -6 3 -11q3 -4 7 -4q5 0 11 4q4 3 13 14q-2 -5 -2 -9q0 -5 3 -6q2 -2 6 -2q8 0 15 5q8 4 12 15q5 10 5 20
q0 12 -5 21q-4 9 -15 15q-10 5 -21 5q-14 0 -28 -8q-12 -7 -21 -21q-6 -13 -6 -28t6 -27q8 -12 18 -17q14 -8 26 -8q17 0 32 11q14 10 20 25h-5q-7 -15 -19 -24t-27 -9q-12 0 -24 6q-9 6 -16 16q-6 12 -6 26q0 15 7 26q8 14 18 21q12 8 25 8q11 0 20 -5q9 -4 13 -12
q5 -9 5 -19t-5 -21q-3 -7 -10 -12q-6 -6 -11 -6q-1 0 -1 2q-2 1 -2 4q0 2 2 6q0 2 3 15zM1274 -206v0q3 0 6 -3q4 -6 4 -14t-3 -11t-7 -3q-5 0 -8 3q-4 6 -4 15q0 7 4 10q3 3 8 3zM1262 -258v0q7 0 19 -1q11 0 14 -2q1 0 1 -3q0 -4 -3 -8q-6 -3 -16 -3q-11 0 -18 3
q-3 2 -3 5q0 2 1 5q2 1 5 4zM1262 -238v0q-6 -3 -8 -6q-1 -3 -1 -6q0 -2 1 -3q2 -2 5 -3l-6 -6q-3 -5 -3 -6q-1 -2 -1 -3q0 -3 2 -7q9 -5 21 -5q14 0 24 9q5 6 5 13q0 3 -3 6q-2 5 -8 5q-4 1 -16 1h-8q-3 0 -4 2q-2 1 -2 3l2 3l3 3q4 -2 9 -2q9 0 15 5q6 6 6 13q0 6 -3 10h6
h3v0q1 2 1 3q0 2 -1 2v1h-3h-11q-6 3 -13 3q-9 0 -17 -6q-6 -6 -6 -11q0 -6 3 -11q3 -4 8 -7zM1323 -215v0v12h-3l-15 -6l1 -3q2 2 3 2q2 0 3 -2q2 0 2 -3v-10v-19v-8q-2 -1 -3 -3h-5v-3h26v3h-6q-2 2 -2 3q-1 2 -1 8v28q3 3 7 4q5 3 8 3t6 -4q1 -3 1 -9v-22v-6q0 -3 -1 -5
h-6v-3h25v3h-4q-2 2 -2 3q-1 2 -1 8v25v3v0q4 3 7 4q3 2 6 2q6 0 7 -3q2 -3 2 -9v-22v-6q0 -3 -2 -3q-3 -2 -6 -2h-1v-3h27v3h-6q-2 2 -2 3q-1 2 -1 8v22q0 6 -2 10q-1 5 -3 8q-4 1 -9 1q-4 0 -9 -1q-3 -3 -8 -11q-2 6 -5 9q-4 3 -10 3h-5q-3 -1 -6 -4q-1 -2 -7 -8z
M1430 -246v0q-8 -6 -12 -6q-3 0 -6 3t-3 8q0 3 3 6q2 3 7 4q2 2 11 6v-21zM1430 -249v0q0 -6 1 -7q2 -3 5 -3q6 0 13 10v3l-4 -4h-3h-2v3q-1 1 -1 9v18v10q-2 3 -6 6q-5 1 -11 1q-10 0 -14 -4q-5 -5 -5 -9q0 -1 2 -3l1 -1q3 0 5 1q1 2 1 3v3q0 3 2 4q2 3 7 3q4 0 7 -3
q2 -3 2 -10v-3q-14 -4 -19 -9q-6 -3 -8 -7q-3 -2 -3 -6q0 -6 5 -11q3 -4 7 -4t7 1q3 2 11 9zM1467 -174v0q-3 0 -4 -2q-3 -1 -3 -4t3 -5q1 -1 4 -1q2 0 4 1v5v4q-2 2 -4 2zM1471 -203v0h-2l-17 -6v-3q3 2 5 2q1 0 3 -2l1 -1v-12v-19v-8l-3 -3h-6v-3h27v3h-6q-2 2 -2 3v8v41z
M1504 -174v0h-3l-16 -6l1 -3q3 1 5 1q1 0 1 -1q2 0 2 -3v-11v-47v-8q0 -1 -2 -3h-6v-3h27v3h-6q-1 2 -3 3v8v70zM1529 -246v0q-3 0 -4 -1q-1 -2 -1 -5t1 -6q1 -1 4 -1t5 1q3 3 3 6t-3 5q-2 1 -5 1zM1593 -237v0h-1q-5 -6 -8 -9t-8 -3q-9 0 -14 8q-4 6 -4 16q0 9 4 15
q3 4 9 4q5 0 8 -3q1 -1 1 -4t1 -4q2 -2 5 -2t4 2l2 1q0 4 -6 9q-5 4 -12 4q-12 0 -18 -7q-7 -7 -7 -21q0 -12 7 -21q5 -7 15 -7q8 0 13 6q6 6 9 16zM1626 -206v0q5 0 9 -6q6 -7 6 -22q0 -10 -3 -16q-4 -5 -10 -5t-12 9q-5 8 -5 20q0 9 3 11q2 5 5 6q3 3 7 3zM1626 -203v0
q-6 0 -12 -3q-6 -4 -10 -10q-3 -7 -3 -15q0 -9 6 -18q7 -10 19 -10q8 0 13 4q6 3 9 12q3 6 3 14q0 10 -4 17q-9 9 -21 9zM1675 -215v0v12h-3l-15 -6v-3q3 2 5 2q1 0 3 -2q1 0 1 -3v-10v-19v-8l-3 -3h-6v-3h27v3h-6q-1 2 -1 3q-2 2 -2 8v28q3 3 8 4q4 3 7 3t6 -4q1 -3 1 -9
v-22v-6q0 -3 -1 -5h-6v-3h25v3h-4q-2 2 -2 3q-1 2 -1 8v25v3v0q4 3 7 4q3 2 6 2q6 0 8 -3q1 -3 1 -9v-22v-6q0 -3 -1 -3q-3 -2 -6 -2h-2v-3h27v3h-6q-1 2 -1 3q-2 2 -2 8v22q0 6 -1 10q0 5 -3 8q-5 1 -9 1q-5 0 -9 -1q-3 -3 -9 -11q-2 6 -6 9q-3 3 -9 3h-4q-3 -1 -6 -4z
M1088 1396v0q0 45 -16 85t-36.5 70t-36.5 47l-16 17l-16 -17t-36.5 -47t-36.5 -70t-16 -85t16 -85t36.5 -70t36.5 -47l16 -17l16 17t36.5 47t36.5 70t16 85zM1088 605v0q0 46 -16 85.5t-36.5 69.5t-36.5 47l-16 17l-16 -17t-36.5 -47t-36.5 -69.5t-16 -85.5q0 -45 16 -84.5
t36.5 -69.5t36.5 -47l16 -17l16 17t36.5 47t36.5 69.5t16 84.5zM778 1355v0q-33 31 -72 48t-74.5 24t-59 7.5l-23.5 0.5l0.5 -23.5t7.5 -59t24 -74.5t48 -72q33 -32 72 -48.5t75 -23.5t59 -7.5l23 -0.5l-0.5 23t-7.5 59t-23.5 75t-48.5 72zM1337 795v0q-33 32 -72 49
t-74.5 23.5t-59 7.5l-23.5 1l1 -23.5t7.5 -59t23.5 -74.5t49 -72q32 -32 71 -49t75 -23.5t59.5 -7.5l23.5 -1l-1 23.5t-7.5 59.5t-23.5 75t-49 71zM588 1106v0q-45 0 -85 -16t-70 -36.5t-47 -36.5l-17 -16l17 -16t47 -36.5t70 -36.5t85 -16t85 16t70 36.5t47 36.5l17 16
l-17 16t-47 36.5t-70 36.5t-85 16zM1379 1106v0q-46 0 -85.5 -16t-69.5 -36.5t-47 -36.5l-17 -16l17 -16t47 -36.5t69.5 -36.5t85.5 -16q45 0 84.5 16t69.5 36.5t47 36.5l17 16l-17 16t-47 36.5t-69.5 36.5t-84.5 16zM629 795v0q-31 -32 -48 -71t-24 -75t-7.5 -59.5
l-0.5 -23.5l23.5 1t59 7.5t74.5 23.5t72 49q32 33 48.5 72t23.5 74.5t7.5 59l0.5 23.5l-23 -1t-59 -7.5t-75 -23.5t-72 -49zM1189 1355v0q-32 -33 -49 -72t-23.5 -75t-7.5 -59l-1 -23l23.5 0.5t59 7.5t74.5 23.5t72 48.5q32 33 49 72t23.5 74.5t7.5 59l1 23.5l-23.5 -0.5
t-59.5 -7.5t-75 -24t-71 -48zM1124 1001v0q0 58 -41 99t-100 41q-58 0 -99.5 -41t-41.5 -99q0 -59 41.5 -100t99.5 -41q59 0 100 41t41 100zM533 233v0h-29q0 6 4 11q4 4 11 4q6 0 10 -4t4 -11zM556 208v0l-23 4q-4 -12 -13 -12q-7 0 -11 4q-5 5 -5 12h52v4q0 12 -2 20
q-3 9 -8 15t-12 9q-7 4 -16 4t-16 -4q-7 -3 -12 -9q-5 -5 -7 -14q-3 -8 -3 -17q0 -10 3 -18q2 -8 7 -14t13 -9q7 -3 17 -3q27 0 36 28zM573 182v0h23v114h-23v-114zM641 296v0h-23v-114h23v42q0 7 1 11t3 7t5 4q3 2 7 2q5 0 8 -3q4 -2 4 -7v-3v-2v-3v-2v-2v-44h23v49
q0 19 -5 26v0q-7 11 -23 11q-13 0 -23 -11v39zM759 220v0v-2q0 -7 -1 -10q-1 -2 -3 -3q-1 -2 -3 -3t-5 -2q-2 -1 -4 -1q-3 0 -4 1l-4 2q-1 1 -2 3q-1 1 -1 3q0 4 4 6q1 1 4 2q2 1 7 2v0q4 1 7 1q3 1 5 1zM711 242v0l21 -4q3 10 13 10q8 0 11 -2q3 -3 3 -8v0q-3 -1 -8 -3
q-5 -1 -12 -2q-8 -2 -14 -4q-5 -2 -9 -5t-5 -8q-2 -4 -2 -10t2 -11q2 -4 6 -8q3 -3 8 -5t11 -2q7 0 13 3q6 2 12 8q0 -2 1 -5l2 -4h23q-6 13 -6 28v13v12q0 7 -1 12q0 5 -2 8q-7 13 -31 13q-8 0 -14 -2q-6 -1 -10 -5q-4 -3 -7 -8t-5 -11zM824 182v0v27q0 10 1 16q0 7 1 10v0
q2 5 4 8q3 2 7 2q5 0 11 -4l7 22q-8 5 -15 5q-3 0 -5 -1q-2 0 -4 -2q-2 -1 -4 -3t-4 -6v10h-22v-84h23zM886 182v0v27v16q1 7 2 10v0q1 5 4 8q2 2 7 2q4 0 10 -4l8 22q-8 5 -15 5q-3 0 -5 -1q-2 0 -4 -2q-2 -1 -4 -3t-5 -6v10h-21v-84h23zM969 220v0v-2v-10q-1 -2 -3 -3
q-1 -2 -3 -3t-5 -2q-2 -1 -4 -1q-3 0 -5 1q-1 1 -3 2q-1 1 -2 3q-1 1 -1 3q0 4 4 6q1 1 3 2q3 1 8 2v0q4 1 7 1q3 1 4 1zM922 242v0l20 -4q4 10 14 10q8 0 11 -2q2 -3 2 -8v0q-2 -1 -7 -3l-12 -2q-8 -2 -14 -4q-5 -2 -9 -5t-5 -8q-2 -4 -2 -10t2 -11q2 -4 6 -8q3 -3 8 -5
t11 -2q7 0 13 3q6 2 12 8q0 -2 1 -5q1 -2 1 -4h24q-6 13 -6 28v13v12q0 7 -1 12q0 5 -2 8q-7 13 -31 13q-8 0 -14 -2q-6 -1 -10 -5q-5 -3 -8 -8t-4 -11zM1013 182v0h23v27l4 4q2 3 4 5l20 -36h26q-4 6 -7 13q-4 7 -8 13l-8 14q-4 6 -7 13l29 31h-30q-6 -7 -12 -13
q-5 -7 -11 -14v57h-23v-114zM1140 266v0v-20h12v-64h23v64h16v20h-16v4q0 4 2 6t6 2h5q2 0 5 -1l4 18q-10 3 -19 3q-5 0 -9 -1q-3 0 -6 -2t-5 -4t-4 -5q-1 -2 -1 -6q-1 -4 -1 -10v-4h-12zM1221 224v0q0 5 2 9q1 4 3 7q3 3 6 5q4 2 8 2t8 -2q3 -2 5 -5q3 -3 4 -7t1 -9t-1 -9
t-4 -7q-2 -3 -5 -5q-4 -2 -8 -2t-8 2q-3 2 -6 5q-2 3 -3 7q-2 4 -2 9zM1198 225v0q0 -14 5 -24q6 -10 16 -15q5 -3 10 -4q5 -2 11 -2q9 0 17 4q8 3 13 9q6 6 9 14t3 17q0 10 -3 18t-9 13q-5 6 -13 9q-8 4 -17 4t-16 -3q-8 -3 -14 -9q-5 -5 -9 -13q-3 -8 -3 -18zM1374 182v0
v52q0 17 -6 24q-7 10 -22 10q-8 0 -14 -3t-11 -10v11h-22v-84h23v38q0 13 2 18q3 10 15 10q10 0 11 -11q0 -2 1 -4v-8v-43h23zM1434 266v0h-15v29l-23 -14v-15h-9v-21h9v-33v-9t1 -6v0q1 -9 6 -13t15 -4q9 0 18 4l-2 20q-7 -2 -10 -2q-2 0 -3 1q-2 1 -2 5v37h15v21z
M1464 212v0l-24 -3q8 -29 40 -29q8 0 15 2t12 6t7 9q3 6 3 12t-1 10q-2 4 -5 7q-4 3 -10 6q-6 2 -14 4q-7 1 -12 3q-4 1 -6 2q-2 0 -3 1t-1 2q0 5 14 5q12 0 14 -10l22 4q-2 6 -5 11t-7 8q-5 3 -11 4q-6 2 -14 2t-14 -2t-11 -5q-4 -4 -7 -9q-2 -5 -2 -11t2 -11q3 -5 8 -8
q3 -3 12 -5q8 -3 20 -6q8 -2 8 -5q0 -6 -14 -6t-16 12z" />
    <glyph glyph-name=".null" horiz-adv-x="0" 
 />
    <glyph glyph-name="glyph2" horiz-adv-x="508" 
 />
    <glyph glyph-name="uni001D" horiz-adv-x="0" 
 />
    <glyph glyph-name="uni001D" horiz-adv-x="0" 
 />
    <glyph glyph-name="space" unicode=" " horiz-adv-x="508" 
 />
    <glyph glyph-name="space" unicode="&#xa0;" horiz-adv-x="508" 
 />
    <glyph glyph-name="exclam" unicode="!" 
 />
    <glyph glyph-name="quotedbl" unicode="&#x22;" 
 />
    <glyph glyph-name="numbersign" unicode="#" 
 />
    <glyph glyph-name="dollar" unicode="$" 
 />
    <glyph glyph-name="percent" unicode="%" 
 />
    <glyph glyph-name="ampersand" unicode="&#x26;" 
 />
    <glyph glyph-name="quotesingle" unicode="'" 
 />
    <glyph glyph-name="parenleft" unicode="(" 
 />
    <glyph glyph-name="parenright" unicode=")" 
 />
    <glyph glyph-name="asterisk" unicode="*" 
 />
    <glyph glyph-name="plus" unicode="+" 
 />
    <glyph glyph-name="comma" unicode="," 
 />
    <glyph glyph-name="hyphen" unicode="-" 
 />
    <glyph glyph-name="hyphen" unicode="&#xad;" 
 />
    <glyph glyph-name="period" unicode="." 
 />
    <glyph glyph-name="slash" unicode="/" 
 />
    <glyph glyph-name="zero" unicode="0" 
d="M1774 -232q113 0 123 124q0 86 -54 111l-2 10q0 2 8 2q85 30 93 127q0 97 -77 135v10q0 4 4 4q115 35 115 146q-6 92 -99 147l-6 4l6 8q99 30 99 172q0 54 -22 88q-45 59 -113 59h-479q-20 0 -42 8l-14 16l4 6l10 16q6 19 34 81q85 190 85 303q0 97 -24 159l-22 63
l-31 50q-44 47 -113 55q-117 -10 -117 -117q-4 -81 -4 -184q0 -18 -58 -77q-37 -36 -138 -153q-252 -289 -252 -624v-672q4 -56 26 -67l31 -10h1029zM484 -379q26 0 42.5 16t16.5 987q0 57 -59 57h-408q-60 0 -62 -57v-948q0 -55 62 -55h408z" />
    <glyph glyph-name="one" unicode="1" 
d="M367 649l192 -194l203 -205l196 194l-436 436q-48 54 -48 116t48 113q52 48 114 48t113 -48l17 -16l194 196l-15 15q-181 166 -408 116q-17 96 -89 158t-170 62q-109 0 -186.5 -76.5t-77.5 -186.5q0 -94 57 -165t148 -92q-65 -240 111 -434zM585 865l196 -192l205 205
l194 194l37 37q54 48 116 48t113 -48q48 -51 48 -113t-48 -116l-16 -15l190 -194l15 15q174 190 111 429q98 13 163.5 86t65.5 173q0 109 -77.5 186.5t-184.5 77.5q-100 0 -172 -63.5t-89 -163.5q-239 63 -431 -109l-37 -37l-194 -194zM1459 -115q21 -90 92 -149t171 -65
q109 0 185.5 77.5t76.5 186.5q0 98 -62.5 171t-162.5 88q52 233 -115 413l-440 440l-194 -195l205 -205l194 -194l37 -37q48 -54 48 -115.5t-48 -113.5q-51 -48 -113 -48t-116 48l-15 16l-194 -196l15 -14q194 -176 436 -108zM1384 431l-195 192l-205 -205l-194 -194
l-37 -37q-52 -48 -114.5 -48t-114.5 48q-46 52 -46 113.5t46 115.5l16 15l-195 194l-15 -15q-169 -183 -113 -418q-89 -22 -146 -92t-57 -163q0 -109 77.5 -185.5t186.5 -76.5q94 0 164.5 57t92.5 148q227 -54 412 115l37 37l194 194z" />
    <glyph glyph-name="two" unicode="2" 
d="M592 1131q65 -11 106 -62q45 -50 45 -126q0 -65 -32 -112q-29 -48 -82 -70q-52 -23 -208 -23h-145v404h127q145 0 189 -11zM970 725q43 90 43 220q0 169 -79 277q-72 108 -186 139q-72 21 -314 21h-420v-1423h262v536h175q178 0 270 22q72 15 139 65q69 50 110 143z
M1874 35q109 105 109 246q0 132 -78 204q-78 73 -282 119q-198 53 -231 79q-24 20 -24 48q0 37 28 58q41 29 139 29q78 0 123 -31q41 -34 56 -93l238 46q-38 138 -132 205q-93 70 -289 70q-200 0 -299 -91q-99 -93 -99 -227q0 -146 114 -230q84 -62 387 -136q61 -17 80 -33
q16 -21 16 -52q0 -49 -31 -75q-49 -39 -143 -39q-92 0 -140 43t-65 123l-253 -43q35 -149 149 -233q113 -87 305 -87q212 0 322 100z" />
    <glyph glyph-name="three" unicode="3" 
d="M1002 1421q181 0 311 -128.5t130 -311.5v-128l-198 -64l-138 64v128q0 42 -31 72.5t-74 30.5t-74 -30.5t-31 -72.5v-640q0 -183 -129.5 -312t-312.5 -129q-182 0 -311.5 129t-129.5 312v291h338v-280q0 -43 30 -73t73 -30q44 0 75 30t31 73v629q0 183 129 311.5
t312 128.5zM1107 625l138 -64l198 64v-284q0 -43 31 -73t73 -30q43 0 74 30t31 73v279h336v-279q0 -183 -129 -312t-312 -129t-311.5 129t-128.5 312v284z" />
    <glyph glyph-name="four" unicode="4" 
d="M1008 514q-110 61 -294 175q-206 130 -293 179q316 206 587 365q107 -72 570 -356q-101 -80 -282 -184q-230 -140 -288 -179zM1791 709q-195 159 -195 168q7 0 99 76q183 143 292 251q-270 168 -566 371h-18q-71 -63 -197 -168q-140 -112 -198 -168q-184 139 -399 336
h-27q-35 -24 -559 -371q60 -72 192 -173q146 -112 199 -163q-351 -280 -400 -324q101 -56 297 -189q188 -127 289 -185q60 49 204 172q127 107 204 163q353 -299 413 -335q311 212 566 374q-33 35 -196 165zM1587 206l-179 -108q-56 50 -193 164q-131 107 -196 170
q-77 -36 -209 -157q-145 -128 -221 -168q-25 11 -81 50q-53 35 -87 49v-130q83 -43 293 -172q184 -114 294 -175q84 51 288 179q184 108 291 168v130z" />
    <glyph glyph-name="five" unicode="5" 
d="M1048 1048v-791q8 -14 14 -14h695q153 0 226 199v77l-22 62q-77 141 -204 141h-35q-17 0 -71 -12h-6q-11 80 -30 122q-134 264 -400 264q-153 -19 -167 -48zM968 1011q0 -207 -8 -521q8 -153 8 -219q0 -16 18 -28h16q17 6 21 21q0 70 11 197q-8 184 -11 547q0 17 -21 29
h-16q-14 -8 -18 -26zM887 977q0 -148 -6 -535q6 -93 6 -168q0 -3 5 -13q-5 0 -5 -4q11 -14 16 -14h18l7 3q10 0 20 226q-10 400 -14 505l-13 12h-18zM646 920l-12 -453q0 -39 3 -39q0 -185 23 -185h8l19 12l9 212q0 60 -9 451q-13 12 -19 12h-8zM725 909q0 -79 -11 -419
l-1 -26q12 -121 12 -203q0 -12 16 -18h12l14 12l12 212l-12 437q-5 16 -23 20zM566 904l-11 -437q0 -51 3 -51q0 -173 23 -173h13q12 0 25 224q-13 379 -17 417q4 0 4 6q-11 25 -20 28h-5zM816 904q-14 0 -21 -425q6 -35 15 -224q3 -12 23 -12h3l16 12q0 26 11 209l-11 428
q-6 17 -28 17zM486 856l-10 -392q0 -28 3 -28q0 -187 21 -193h15q5 6 23 224q-9 105 -14 399q-12 15 -18 15h-6q-10 0 -14 -25zM396 464q0 -22 3 -22q6 -199 23 -199h5q18 0 28 218q0 51 -16 334q-7 9 -12 9h-8q-12 0 -23 -340zM242 467q9 -221 23 -221h3q14 0 28 215
q-10 228 -28 228h-3q-13 0 -23 -222zM161 464q19 -209 28 -209h3q8 3 28 209q-19 221 -31 221q-11 0 -28 -221zM316 464q17 -169 17 -207q0 -11 6 -11h12q9 0 22 215q-2 77 -5 77q0 141 -21 141h-2q-14 0 -29 -215zM84 467q17 -182 29 -182q8 0 28 182q-17 167 -28 184
q-12 0 -29 -184zM19 464q12 -113 19 -113q15 0 23 113q-8 120 -23 120q-7 0 -19 -120z" />
    <glyph glyph-name="six" unicode="6" 
d="M982 -20q-146 0 -252.5 38.5t-197.5 130.5q-81 71 -81 156q0 65 39.5 97t88.5 32q79 0 172 -121q26 -29 49.5 -43t72.5 -36q77 -25 154 -25q115 0 182 75q41 43 41 81q0 7 -4 34t-49 56q-79 61 -233 79q-213 38 -343 122q-156 99 -156 251l4 34q16 181 133 275.5
t267 108.5q54 6 109 6q258 0 420 -156q87 -63 87 -150q0 -55 -46 -92q-35 -30 -71 -30q-33 0 -69.5 29.5t-81 68t-105.5 77t-140 38.5q-75 0 -138 -37q-93 -56 -93 -127q0 -27 21.5 -65.5t119.5 -62t194 -43.5q359 -75 446 -288q24 -54 24 -113q0 -31 -17 -91.5t-85 -134.5
t-163.5 -120t-204.5 -50q-49 -4 -94 -4zM1441 -324q221 0 382 160t161 386q0 168 -97 304q10 61 10 125q0 187 -73 353q-144 335 -477 479q-170 73 -355 73q-111 0 -148 -8q-133 87 -292 87q-221 0 -380 -160t-159 -384q0 -162 89 -300q-18 -69 -18 -140q0 -190 73 -354.5
t194.5 -288t287 -193.5t353.5 -70q84 0 167 12q130 -81 282 -81z" />
    <glyph glyph-name="seven" unicode="7" 
d="M779 174q-2 -4 -4 -6q-3 -4 -7 -5q-81 -83 -163 -165l-109 -109q-2 -2 -3 -4q-10 -9 -21 -20q-41 -49 -40 -109t44 -106q50 -51 114 -51t114 49q142 142 285 286q4 2 5 8q2 3 4 7q2 -5 4 -7q6 -8 9 -10q45 -43 88 -86q98 -99 195 -196q62 -57 136 -47.5t117 77.5
q52 104 -30 196l-197 197l-88 88q-5 5 -13 11v2q4 0 8 2q5 0 7 2q161 39 302 127q93 67 63 180q-37 105 -150 110q-54 -2 -99 -32q-221 -131 -477 -84q-128 26 -240 96q-58 31 -120 16t-99 -71q-32 -60 -17 -120t71 -97q38 -24 77 -45q111 -56 234 -84zM1000 1698
q-232 -7 -383.5 -161t-159.5 -382q8 -228 159.5 -381t383.5 -158q232 5 384 158t157 383q-5 228 -161.5 384.5t-379.5 156.5zM1223 1155q-2 -96 -65.5 -158.5t-161.5 -64.5q-93 2 -155 65.5t-66 161.5q4 93 67.5 156t157.5 65q96 -2 158.5 -66t64.5 -159z" />
    <glyph glyph-name="eight" unicode="8" 
d="M1092 1635q-101 0 -135 -135v-33q0 -45 75 -244q-369 -127 -382 -127h-11q-62 298 -191 298h-30q-140 0 -161 -161v-10l66 -245q-307 -63 -307 -198q0 -178 157 -178h21q45 0 243 69q109 -353 129 -376q-309 -84 -309 -213q25 -180 148 -180q73 0 253 66h15
q63 -307 219 -307q168 26 168 157q0 34 -73 255q124 52 380 138q62 -309 223 -309q138 0 166 171q0 11 -73 243q307 63 307 208v35q0 109 -157 146q-17 0 -243 -73q-21 0 -139 369v11q298 73 298 191v52q0 103 -139 139h-41q-45 0 -213 -66h-8q-84 307 -204 307h-52z
M751 769q40 20 376 136q15 -5 133 -389q-368 -120 -389 -120q0 23 -120 373z" />
    <glyph glyph-name="nine" unicode="9" 
d="M995 -199q175 0 325 132q494 375 657 1111l8 97q0 339 -337 339q-115 0 -233 -61q-227 -104 -288 -375q81 48 140 48q140 0 140 -196q0 -156 -148 -389q-81 -116 -132 -116q-81 0 -201 391l-26 126q-113 596 -300 596q-93 0 -152 -16.5t-87 -28.5l-21 -20
q-89 -81 -164 -171t-121 -155l-41 -69l67 -67l67 61q45 26 91 26q73 0 101 -87q179 -677 329 -983q130 -193 326 -193z" />
    <glyph glyph-name="colon" unicode=":" 
d="M987 106q-26 0 -46 21l-516 517q-20 21 -20 47q0 24 20 45l152 150q16 20 45 20q30 0 45 -20l320 -321l735 735q16 18 45 18q30 0 46 -18l151 -150q20 -21 20 -47q0 -24 -20 -45l-932 -931q-14 -21 -45 -21zM995 -314q-89 0 -164 67l-749 749q-67 75 -67 161q0 89 67 166
l749 739q75 67 164 67q88 0 163 -67l343 -343l-514 -508l-241 240q-57 53 -124 53q-71 0 -124 -53l-154 -148q-49 -57 -49 -126t49 -122l526 -520q36 -32 83 -46l8 -6h34q69 0 124 52l786 788q75 -77 75 -166q0 -86 -75 -161l-747 -749q-75 -67 -163 -67z" />
    <glyph glyph-name="semicolon" unicode=";" 
d="M580 1209q111 415 348 415q18 0 37 -12q-148 -53 -219 -350zM672 -86q-102 0 -171.5 30.5t-104.5 65.5l-35 31l58 184l63 -49q78 -45 131 -45q90 0 90 82q0 67 -96 137q-139 100 -139 241q0 147 106 266t319 119q84 0 121 -13l41 -18l-78 -237l-22 10q-19 8 -56 17.5
t-77 9.5q-135 0 -135 -99q0 -47 100 -116q182 -121 182 -287q0 -300 -297 -329zM826 1289q73 223 182 257q26 -63 26 -180v-14zM1276 -401l646 141l-112 769q-111 749 -116 771.5t-15.5 22.5t-87.5 6l-82 6l-102 98q-31 33 -47 33l-84 -18q-68 202 -221 202h-8
q-58 68 -111 68q-202 0 -306.5 -184t-135.5 -330q-215 -65 -231 -74.5t-23.5 -55.5t-82.5 -633l-78 -599zM1108 1373v22q0 100 -25 164q78 -13 127 -154z" />
    <glyph glyph-name="semicolon" unicode="&#x37e;" 
d="M580 1209q111 415 348 415q18 0 37 -12q-148 -53 -219 -350zM672 -86q-102 0 -171.5 30.5t-104.5 65.5l-35 31l58 184l63 -49q78 -45 131 -45q90 0 90 82q0 67 -96 137q-139 100 -139 241q0 147 106 266t319 119q84 0 121 -13l41 -18l-78 -237l-22 10q-19 8 -56 17.5
t-77 9.5q-135 0 -135 -99q0 -47 100 -116q182 -121 182 -287q0 -300 -297 -329zM826 1289q73 223 182 257q26 -63 26 -180v-14zM1276 -401l646 141l-112 769q-111 749 -116 771.5t-15.5 22.5t-87.5 6l-82 6l-102 98q-31 33 -47 33l-84 -18q-68 202 -221 202h-8
q-58 68 -111 68q-202 0 -306.5 -184t-135.5 -330q-215 -65 -231 -74.5t-23.5 -55.5t-82.5 -633l-78 -599zM1108 1373v22q0 100 -25 164q78 -13 127 -154z" />
    <glyph glyph-name="less" unicode="&#x3c;" 
d="M1148 -151q17 0 17 17q0 13 -17 30q-30 39 -30 87v320q30 0 30 -96l4 -212q0 -66 78 -94q28 -7 58 -7q37 0 39 11q0 6 -22 24q-54 32 -58 75v41q4 21 4 157q0 110 -18 162.5t-70 80.5q312 20 405 216h23q125 0 382 -65l10 5q0 8 -6 8q-258 67 -386 67h-15l13 36h56
q168 0 302 -28l32 -6v-2q7 0 7 8q0 5 -3 5q-124 36 -336 36h-55q19 80 25 190q-8 191 -101 284q-11 13 -15 20q9 66 9 112q0 34 -5 58q-10 58 -25 77h-20q-88 0 -243 -99q-91 22 -220 22q-161 0 -248 -30q-154 103 -238 103h-29l-14 -33q-20 -45 -20 -114q0 -53 17 -116
l-6 -2q-41 -52 -68 -106.5t-27 -156.5q0 -116 30 -209q-235 0 -376 -36q-5 0 -5 -5q0 -8 7 -8l2 2q150 34 346 34h31l15 -36q-181 -7 -321 -47q-26 -9 -50.5 -14.5t-26 -8.5t-1.5 -5q0 -7 7 -7q8 4 21 7q89 28 177 41q71 15 200 19q95 -181 411 -216q-66 -51 -73 -120
q-41 -22 -105 -22q-37 0 -73 9q-46 24 -85 78q-64 96 -131 96q-43 0 -43 -15q0 -13 17 -26q61 -30 104 -122q47 -142 209 -142q43 0 71 2l27 4v-181q0 -34 -49 -71q-28 -17 -28 -32q0 -13 45 -13q32 0 80.5 26t48.5 71v239q0 37 16 64q6 9 12 13l5 3v-169
q0 -167 -7.5 -202.5t-27.5 -50.5q-11 -11 -11 -22q0 -13 18 -13q30 0 64.5 22.5t52.5 60.5t18 214v170h28v-155v-103q0 -121 35 -159q52 -50 99 -50zM379 456q-15 0 -15 11q0 9 15 9q17 0 17 -9q0 -11 -17 -11zM426 430q-15 0 -15 9q0 13 15 13q16 0 16 -13q0 -9 -16 -9z
M457 398q-17 0 -17 7q0 12 17 12q13 0 13 -12q0 -7 -13 -7zM482 357q-17 0 -17 9q0 11 17 11q16 0 16 -11q0 -9 -16 -9zM511 319q-16 0 -16 12q0 9 16 9q15 0 15 -9q0 -12 -15 -12zM551 290q-17 0 -17 9t17 9q15 0 15 -9t-15 -9zM605 267q-15 0 -15 11q0 12 15 12t15 -12
q0 -11 -15 -11zM661 267q-17 0 -17 11q0 12 17 12q13 0 13 -12q0 -11 -13 -11zM715 277q-13 0 -13 11q0 7 13 7q15 0 15 -7q0 -11 -15 -11zM1008 491q-71 0 -138 2q-359 23 -359 276q0 70 51 137q74 88 207 88l37 -4q88 -8 204 -8q106 0 181 8l30 4q140 0 198 -75t58 -161
q0 -244 -329 -265q-69 -2 -140 -2zM336 348q13 0 13 13l-8 37q-5 19 -5 32q-4 -13 -10.5 -32t-6.5 -39q0 -11 17 -11zM997 540q22 0 38 14t16 31q-2 5 -7 5q-6 0 -6 -8.5t-12 -19.5t-29 -11q-19 2 -33 12t-14 18.5t-5 8.5q-8 0 -8 -5q0 -8 8 -17q16 -28 52 -28zM995 614
q24 4 24 27q0 22 -24 22q-11 0 -13 -3t-5.5 -7.5t-3.5 -11.5q0 -6 5.5 -14.5t16.5 -12.5zM741 626q36 0 62 30q35 39 35 106t-35 110q-26 32 -62 34q-39 0 -68 -42t-29 -102q0 -62 29 -99t68 -37zM1264 626q43 0 71 37t28 99q0 60 -28 102t-71 42q-38 0 -66.5 -42
t-28.5 -102q0 -62 28.5 -99t66.5 -37z" />
    <glyph glyph-name="equal" unicode="=" 
d="M996 -214q501 362 757 687q231 294 231 541q0 68 -16 136q-47 156 -167.5 250.5t-301.5 112.5q-36 6 -59 6q-109 0 -191.5 -36t-146 -98.5t-106.5 -145.5q-43 86 -108 148t-153 94t-199 32q-143 0 -250 -50q-201 -98 -264 -336q-12 -61 -12 -124q0 -256 244.5 -546
t741.5 -671z" />
    <glyph glyph-name="greater" unicode="&#x3e;" 
d="M1852 -113q31 0 61 20q75 46 75 119v1276q0 34 -16 58q-49 81 -120 81h-1714q-9 0 -31 -12q-93 -46 -93 -123v-1280q0 -30 18 -59q47 -80 120 -80h1700zM1004 777q-468 371 -480 381h954zM1705 172h-1408v800l707 -559l701 559v-800z" />
    <glyph glyph-name="question" unicode="?" 
d="M1003 1640q-206 0 -384.5 -77t-314 -212.5t-212.5 -314t-77 -382.5q0 -206 77 -384.5t212.5 -314t314 -212.5t384.5 -77q204 0 382.5 77t314 212.5t212.5 314t77 384.5q0 204 -77 382.5t-212.5 314t-314 212.5t-382.5 77zM1746 1069q51 -95 77 -200h-330q-18 103 -53 200
h306zM1404 512l-95 282l60 26l67 -219l51 140h65l52 -140l65 219l59 -26l-93 -282l-57 -26l-57 194l-60 -194zM1410 437q-20 -103 -59 -200h-307v200h366zM1604 1255q49 -50 89 -103h-287q-85 186 -237 336q249 -50 435 -233zM1044 1492q174 -148 269 -340h-269v340z
M1044 1069h307q39 -97 59 -200h-366v200zM960 1488v-336h-267q93 190 267 336zM596 869q20 103 57 200h307v-200h-364zM695 794l-95 -282l-57 -26l-60 194l-57 -194l-57 26l-93 282l59 26l65 -219l52 140h65l51 -140l67 219zM400 1255q186 183 435 233q-152 -150 -235 -336
h-289q40 53 89 103zM258 1069h308q-35 -97 -55 -200h-330q26 105 77 200zM258 237q-51 95 -77 200h330q20 -99 55 -200h-308zM400 51q-49 50 -89 107h287q85 -190 237 -340q-249 50 -435 233zM960 -182q-174 146 -269 340h269v-340zM960 237h-307q-37 97 -57 200h364v-200z
M1003 680l-59 -194l-58 26l-94 282l59 26l67 -219l51 140h66l51 -140l65 219l59 -26l-92 -282l-60 -26zM1044 -186v344h269q-95 -194 -269 -344zM1604 51q-186 -183 -435 -233q152 150 237 340h287q-40 -57 -89 -107zM1746 237h-306q35 101 53 200h330q-26 -105 -77 -200z
" />
    <glyph glyph-name="A" unicode="A" 
d="M1009 -396l78 300q121 -25 222 -25q97 0 178 23q163 43 239 252q29 87 29 159q0 196 -194 279q216 36 233 321q0 242 -366 364l74 299l-182 46l-70 -292q-74 19 -146 36l70 290l-180 46l-74 -298l-117 24v4l-251 63l-49 -195l133 -31q87 -24 87 -97l-87 -350l21 -6h-6
q-8 4 -15 4l-120 -474q-13 -46 -59 -46q-22 2 -155 34l-91 -208l368 -95l-76 -300l184 -45l70 299q76 -21 148 -38l-74 -297zM1144 143q-112 0 -326 58l98 404l48 -13q417 -80 417 -267q0 -23 -6 -48q-28 -100 -102 -117t-129 -17zM1227 738q-115 0 -263 51l91 363
q13 -8 36 -10q347 -64 347 -233q-11 -135 -95 -156q-64 -15 -116 -15z" />
    <glyph glyph-name="B" unicode="B" 
d="M502 80l249 2q105 2 232 2h376l3 85q-16 2 -139 2q-109 0 -138 4q-7 225 -7 302q0 37 2 50q26 64 252 245q213 172 264 191q11 2 28 5.5t158 3.5l77 113v0l6 7h-769l28 -120h213l-352 -318q-308 400 -361 477h264q0 93 2 113h-2v9h-874v-122h259q57 -46 170 -182
q292 -342 333 -427q7 -81 7 -172q0 -136 -13 -157q-39 -31 -184 -31q-53 0 -71 -2zM1843 293l136 529q-16 0 -71.5 4.5t-113.5 11.5t-74 11l3 -549zM1829 78l16 125q-70 4 -141 15v-131z" />
    <glyph glyph-name="C" unicode="C" 
d="M962 843h-197l91 385h205q53 0 91 -28q55 -41 55 -114q0 -99 -79 -174q-69 -69 -166 -69zM962 981q32 0 66 26q39 33 39 67l2 10q0 6 -103 6l-27 -109h23zM953 -343h-701l71 314h-310l377 1679h823q257 0 426 -193q61 -64 91 -192q255 -136 255 -424q0 -67 -16 -148
q-180 -570 -724 -570h-190zM603 109l103 466h306q256 0 434 177q106 113 146 284q14 58 14 107q0 108 -42 181q-57 97 -154.5 142.5t-196.5 45.5h-710l-316 -1403h416zM842 -205l103 466h300q211 0 372.5 119.5t215.5 340.5q8 65 8 116q0 166 -99 253q-4 -42 -14 -85
q-179 -569 -722 -569h-192l-98 -465h-251l-39 -176h416z" />
    <glyph glyph-name="D" unicode="D" 
d="M1581 -174q77 0 95 77l312 1498q2 32 -21 51.5t-44 19.5q-12 0 -1864 -691q-45 -18 -45 -65q6 -46 47 -60l451 -140l182 -547q17 -48 71 -48q24 0 45 20l255 239l461 -334q25 -20 55 -20zM759 105l-138 455q982 626 988 626q27 0 27 -18q0 -2 -1 -7t-846 -767z" />
    <glyph glyph-name="E" unicode="E" 
d="M1628 213q-119 0 -207 -81l-749 438q9 36 9 73q0 40 -9 74l743 434q90 -84 213 -84q132 0 224.5 92t92.5 222q0 132 -92.5 224.5t-224.5 92.5q-130 0 -222 -92.5t-92 -224.5q0 -37 8 -73l-742 -434q-90 86 -214 86q-132 0 -224.5 -93.5t-92.5 -223.5q0 -132 92.5 -224
t224.5 -92q124 0 214 86l751 -437q-9 -35 -9 -69q0 -128 90.5 -218t215.5 -90q128 0 217.5 90t89.5 218q0 126 -89.5 216t-217.5 90z" />
    <glyph glyph-name="F" unicode="F" 
d="M1526 212q136 0 232 96t96 230q0 138 -98.5 234t-229.5 96q-84 0 -151 -36q-179 -102 -179 -294q0 -134 96 -230t234 -96zM999 342q0 285 209 503q149 156 318 156l-64 46q-189 149 -463 149t-462 -149l-63 -46q169 0 314 -154q211 -220 211 -505zM474 212
q137 0 233.5 96t96.5 230q0 197 -188 296q-63 34 -142 34q-128 0 -218 -87q-110 -97 -110 -243q0 -134 95.5 -230t232.5 -96zM1526 79q-231 0 -395 197l-132 -197l-132 197q-163 -197 -393 -197q-201 0 -330 129t-129 330q0 150 131 330q-119 30 -131 133h328
q264 263 656 263q394 0 658 -263h327l-8 -39q-27 -69 -122 -94q40 -57 77 -133q53 -106 53 -197q0 -201 -128 -330t-330 -129zM1526 473q-29 0 -48 19.5t-19 45.5q0 28 19 48t48 20q26 0 46 -20t20 -48q0 -26 -20 -45.5t-46 -19.5zM1526 409q51 0 91 38.5t40 90.5
q0 56 -40 94.5t-91 38.5q-57 0 -95 -38.5t-38 -94.5q0 -52 38 -90.5t95 -38.5zM1526 342q-84 0 -141 58t-57 138q0 84 57 141.5t141 57.5q79 0 137 -57.5t58 -141.5q0 -80 -58 -138t-137 -58zM474 473q-27 0 -46 19.5t-19 45.5q0 28 19 48t46 20q28 0 48 -20t20 -48
q0 -26 -20 -45.5t-48 -19.5zM474 409q56 0 94.5 38.5t38.5 90.5q0 56 -38.5 94.5t-94.5 38.5q-54 0 -92.5 -38.5t-38.5 -94.5q0 -52 38.5 -90.5t92.5 -38.5zM474 342q-82 0 -139 58t-57 138q0 84 57 141.5t139 57.5t139.5 -57.5t57.5 -141.5q0 -80 -57.5 -138t-139.5 -58z
" />
    <glyph glyph-name="G" unicode="G" 
d="M1578 689q2 7 2 24q0 115 -109 115q-44 0 -73.5 -23t-36 -45t-6.5 -33q0 -14 5 -27q39 12 81 12q95 0 137 -23zM1511 -401h-74q-254 0 -367 80q-86 75 -86 247q0 76 25 118q65 86 134.5 101.5t119.5 15.5l59 -4v-151l-55 2q-21 0 -44 -3t-29 -28.5t-6 -39.5q0 -82 71 -82
q46 0 81.5 -5.5t61.5 -5.5q52 0 85 21q36 34 37 78t1 63q0 58 -14 117q-24 72 -63 97q-59 27 -168 54q-197 38 -220 82q-9 23 -21.5 52.5t-16.5 29.5q-8 0 -13 -44q-21 -135 -77 -174q-21 -11 -69 -11q-164 0 -407 74q-145 41 -181 88q-18 39 -56 205q-82 371 -82 520
q0 19 3 40t31.5 56.5t93.5 39.5q61 0 113.5 -2t91.5 -2q78 0 97 28q25 69 25 215v118q0 109 258 109q281 0 308 -164q63 -2 113.5 -4t136.5 -8q71 -6 191 -9q146 -16 203 -119q38 -71 38 -153v-48l10 -170q13 -168 13 -323q0 -908 -275 -1086q-25 -11 -77 -15zM466 1276
l-65 -2q-105 0 -168 2q-42 5 -42 11l152 164q151 159 172 159q18 -6 18 -159q0 -59 -2 -107.5t-14.5 -58t-50.5 -9.5z" />
    <glyph glyph-name="H" unicode="H" 
d="M1531 97q-151 0 -290 46.5t-211 157.5q-63 113 -112 254q-71 201 -153 322t-234 121q-297 0 -297 -355q0 -140 67 -239q75 -108 222 -108q85 0 143 29.5t89 59t32 33.5l96 -190q-8 -16 -37.5 -45t-104 -55t-218.5 -26q-266 0 -387 170.5t-121 332.5q0 266 88 396
t209.5 171.5t218.5 41.5q185 0 298 -95.5t181 -229t115 -261t93 -215.5q83 -122 311 -122q61 0 115 10q119 34 119 112q0 43 -48 70.5t-171 63.5q-123 31 -240.5 97.5t-117.5 233.5q0 120 85.5 213.5t234.5 118.5q34 6 68 6q111 0 221 -52q137 -71 194 -227l-210 -66
q-50 127 -210 127q-29 0 -74 -14q-93 -34 -93 -106q0 -40 46.5 -65t157.5 -57q133 -34 257 -102.5t124 -240.5q0 -227 -280 -297q-86 -19 -176 -19z" />
    <glyph glyph-name="I" unicode="I" 
d="M1497 1396v0q4 32 -14 51t-40 19h-910q-24 0 -42 -17t-18 -43v-1408q0 -2 2 -3t4 3l51.5 63.5t120 149.5t125 156.5t72.5 90.5q24 32 46 41t67 9h302q26 0 42.5 15.5t18.5 33.5q4 12 14 63.5t21 106t15 76.5q4 28 -13 48t-43 20h-369q-37 0 -63 26.5t-26 64.5v53
q0 36 26 62t63 26h437q22 0 39.5 15.5t19.5 33.5zM1562 1698v0q123 0 162 -68.5t11 -199.5q-24 -123 -70.5 -348t-87 -418.5t-48.5 -229.5q-8 -51 -44 -105t-143 -54h-132.5h-137h-65.5t-10 -1t-10 -10q-6 -10 -87.5 -103.5t-186.5 -215.5t-185.5 -216l-80.5 -94
q-37 -34 -76 -36t-59 6q-23 8 -46 33.5t-23 89.5v1781q0 56 41.5 122.5t158.5 66.5h232.5h378h348h160.5z" />
    <glyph glyph-name="J" unicode="J" horiz-adv-x="1999" 
d="M854 1192h-2q-6 0 -6 10q0 13 36 13q-14 0 -20 -11.5t-8 -11.5zM983 1202h-2q-4 0 -11 5.5t-15 5.5h-6q14 6 20 6q12 0 18 -10v-1q0 -4 -4 -6zM542 638q4 0 14 6q12 13 14 31l2 8q4 6 4 8q0 8 -6 8t-10 -17t-18 -31q-6 -7 -6 -9q0 -4 6 -4zM806 -288q30 16 30 48
q0 26 -22 61q-4 8 -12 18t-12 14t-4 6v0q10 14 26 14q6 0 14 -4q42 -46 135 -46q28 0 60 4q155 18 206 102q22 37 36 37q16 0 16 -45q0 -42 -28 -125q-6 -22 -6 -36q0 -4 2 -15t28 -11q2 22 14 89q18 86 18 116q0 25 -8 77q-10 56 -10 103q0 4 1 33t27 59q19 21 59 21
q2 44 40 62q32 14 63 14q58 0 94 -28q0 20 -66 48q4 18 9 32.5t7 30.5l3 24t1 18q0 6 -1 17t-1 17t-4 25.5t-5 23.5t-5 29t-6 31q-12 56 -54.5 121.5t-86.5 87.5q30 -22 68 -98q75 -139 75 -246q0 -42 -12 -79q-14 -50 -69 -50q-28 0 -35 24t-8 96.5t-15 125.5
q-30 135 -79 181l-8 6q-32 143 -70 186q-47 54 -47 100q0 22 8 49q8 26 8 40q0 12 -5 26t-49 22q-18 4 -52.5 22t-42.5 18q-14 1 -14 43q0 24 13 51t48 27q36 0 52 -34q10 -26 10 -44q0 -14 -4 -24q-8 -14 -8 -19q0 -18 18 -18q10 0 24 6t14 41q0 102 -44 137q-24 22 -56 26
q-107 -8 -107 -117q0 -18 2 -40q0 -16 -2 -16q-14 12 -54 12q-12 0 -19 -2h-6q-8 0 -12 6v12q0 58 -20 96.5t-52 38.5q-30 0 -47 -34q-22 -39 -22 -75q0 -16 6 -40t14.5 -39.5t16.5 -15.5q12 0 20 16l2 6q0 1 -8 1h-2q-8 0 -17.5 18t-9.5 42q0 56 47 56q22 0 34 -24t12 -46
q-2 -22 -4 -26q-24 -18 -35 -32.5t-32.5 -27.5t-21.5 -15q-22 -20 -22 -38q0 -10 10 -14q31 -22 47 -45.5t74 -23.5q51 0 111 18q2 2 27 8t40.5 11.5t33.5 15.5t24 21t16 11q4 0 10 -4t6 -10q0 -18 -24 -24q-42 -13 -121 -47q-68 -30 -111 -30q-24 0 -62 6l-8 2q-2 0 -2 -4
q0 -6 20 -22q30 -28 75 -28q20 0 44 8q44 14 84 38q61 38 77 38q12 0 16 -14q0 -8 -12 -16t-22 -10l-24 -14q-31 -16 -77 -50q-76 -57 -109 -57q-14 0 -26 6q-24 14 -76 85q-17 28 -25 28q-2 0 -2 -14q0 -44 -54 -129q-16 -30 -26 -69q-2 -12 -2 -22q0 -26 16 -52
q-26 -8 -72.5 -106t-54.5 -166q-2 -14 -2 -44v-53q0 -44 -8 -52q-4 -16 -14 -16q-8 0 -20 12q-41 42 -41 125q0 26 6 52v14v6h-2q-24 -30 -24 -82q0 -53 30 -119q5 -16 30 -33t27 -24q24 -26 122.5 -103.5t109.5 -91.5q20 -16 20 -50q0 -22 -16.5 -44.5t-52.5 -26.5
q10 -16 34.5 -51t32.5 -63.5t8 -84.5zM834 1243q6 0 6 22q0 10 -7 23t-15 13t-8 -8q2 -8 6 -8q8 0 8 -8v-18q0 -16 10 -16zM1309 985q8 0 14 8t6 18q0 24 -23 27t-37 23q-6 11 -10 15l-8 -4q-4 -7 -4 -17q0 -14 16 -40q26 -30 46 -30zM1108 1259q4 0 8 4l2 4q0 14 -5 23
t-12 14t-11 5q-12 0 -12 -4q0 -2 4 -6q20 -6 26 -38v-2zM1110 1505q2 0 4 3t12 10t18 11h11t17 2t12 10l-4 4t-11 8t-9 8q-20 18 -30 18q-16 0 -16 -20l2 -12q0 -6 -8 -18t-8 -14t4 -6t6 -4zM1418 -401q-105 0 -139 77q-16 30 -84 32q-49 2 -150 2q-171 0 -227 -24
q-42 -16 -61 -33q-56 -48 -112 -48q-35 0 -132.5 35.5t-172.5 51.5l-116 22q-63 12 -87 28t-24 46q0 23 17 66t17 59q0 18 -6 42.5t-11 44.5t-5 40v15t10 23q16 13 66.5 15t72.5 16q36 18 50 39t14 61q6 -26 6 -44q0 -54 -46 -79q-28 -20 -74 -20l-35 2q-42 0 -42 -34
q0 -26 20 -66q16 -33 16 -57q0 -28 -20 -68q-16 -35 -16 -51q0 -22 44 -36q23 -6 98.5 -21t115.5 -23q28 -8 89 -28q102 -31 143 -31h16q52 8 78 34.5t26 64.5q0 28 -10 62.5t-21 57.5t-23 43q-143 224 -198.5 282.5t-97.5 58.5q-18 0 -34 -12q-4 -2 -6 -2q-16 0 -16 54
q0 62 40 127q18 28 28 50q58 163 66 175q37 91 79 135q129 166 145 228q-14 131 -18 363v18q0 94 29 162.5t122 119.5q48 24 135 24q56 0 115.5 -17t100.5 -49q68 -47 108 -141q35 -81 35 -152l-2 -50q0 -274 191 -477q64 -69 117 -192q76 -177 76 -300q0 -10 -2 -36
t-13 -49.5t-22 -25.5t-28 -21t-32.5 -42t-46.5 -40t-67 -17q-24 0 -43.5 5t-37.5 33q-16 20 -28 50q-20 34 -40 34q-2 0 -15.5 -4t-25.5 -54q-4 -16 -4 -36q0 -35 12.5 -78t12.5 -100q0 -56 -9 -128q-4 -19 -4 -37q0 -50 23 -80q32 -39 78 -39q4 0 31.5 2t77.5 41
q68 56 103.5 77t120.5 50q114 36 114 76q0 2 -4 13t-27 26.5t-60.5 27.5t-55.5 54t-18 77q0 6 1 30t15 38q2 -40 10 -68q16 -53 43 -81q20 -22 48 -38q38 -20 53.5 -38.5t15.5 -38.5q0 -6 -4 -20q-3 -14 -43 -44q-28 -22 -72 -39l-39 -20q-116 -56 -221 -155
q-24 -26 -97 -26z" />
    <glyph glyph-name="K" unicode="K" 
d="M271 1698v-1864l419 -235l1049 606v474l-933 329l186 -458l288 -134l-590 -339v1476z" />
    <glyph glyph-name="L" unicode="L" 
d="M1500 1698v0h489l-724 -1276l468 -823h-491l-468 823zM566 1314v0l271 -483l-361 -600h-462l363 600l-273 483h462z" />
    <glyph glyph-name="M" unicode="M" 
d="M1607 34q18 32 10 66t-40 54q-550 334 -1346 154q-34 -8 -52.5 -38t-11.5 -67q10 -34 39 -52.5t64 -10.5q727 163 1218 -135q31 -19 65 -10.5t54 39.5zM1774 412q25 38 14.5 80.5t-48.5 68.5q-721 403 -1557 184q-43 -16 -63 -53.5t-8 -82.5q13 -44 51.5 -64t82.5 -7
q340 98 715.5 54t665.5 -216q40 -23 82 -13.5t65 49.5zM1791 805q46 -26 97 -14t80 59q29 48 15.5 98.5t-61.5 78.5q-404 226 -917 264t-900 -78q-53 -18 -77 -63t-9 -100q17 -51 62.5 -76t98.5 -8q340 99 798 67t813 -228z" />
    <glyph glyph-name="N" unicode="N" 
d="M317 206q8 0 29 9t55 17t99.5 32t217.5 67q56 14 56 24q68 18 78 94q0 82 -68 108q0 6 -128 54q-233 92 -266 104t-47 19t-20 9l-6 -4h-14q-106 0 -106 -296q0 -237 104 -237h16zM916 -401q16 0 24 10q49 4 75 56q0 32 5 54t5 445q0 110 -119 110q-48 0 -76 -36t-34 -42
t-14 -19t-20 -17q-126 -156 -164 -197t-52 -61t-28 -36t-14 -37q0 -92 204 -176q134 -54 208 -54zM924 673q16 0 24 6q77 24 77 133l-52 815q-21 68 -121 68q-112 0 -320 -80q-169 -62 -169 -134q437 -808 561 -808zM1257 505q44 0 261 58q62 18 104 25t74 21t38 14
q54 0 54 90q-16 107 -154 273q-80 102 -138 104q-55 0 -65 -22t-25 -39t-127 -173q-152 -203 -152 -245q0 -90 88 -106h42zM1490 -243q64 0 138 93q170 186 170 274q0 46 -29 67t-37 26t-82 23q-36 6 -90 28t-125.5 42.5t-114.5 36.5t-67 16q-44 0 -76 -37.5t-32 -73.5
q0 -46 286 -479q23 -16 59 -16z" />
    <glyph glyph-name="O" unicode="O" 
d="M940 -334q479 18 798 271q24 18 26 46q-2 58 -60 58l-50 -14q-327 -157 -708 -159q-463 35 -840 289l-44 16q-46 0 -48 -46q2 -24 20 -42q359 -373 906 -419zM1822 -166q82 2 138 167q29 86 29 156q0 90 -155 90q-254 -20 -264 -112q0 -40 44 -40l168 18q58 -6 58 -18
q0 -40 -20 -100t-30 -84.5t-10 -34.5q0 -42 42 -42zM736 209q252 0 421 185q26 -55 68 -99q74 -76 106 -76q18 0 45 20t84 70.5t82.5 72.5t25.5 40q0 20 -11 31t-11 21q-29 42 -55 88t-26 564t-517 518q-449 -24 -539 -389q0 -50 42 -50l235 -34q32 18 50 52q42 145 194 155
q153 0 171 -145l4 -142q-738 0 -738 -493q0 -194 109 -291.5t260 -97.5zM886 456q-154 18 -154 182q0 253 375 253v-74q2 -67 -5 -126t-49.5 -134t-132.5 -97z" />
    <glyph glyph-name="P" unicode="P" 
d="M1947 1638h-1891q-17 0 -29.5 -11.5t-12.5 -27.5v-1889q0 -19 12.5 -31.5t29.5 -12.5h1891q16 0 29 12.5t13 31.5v1889q0 16 -13 27.5t-29 11.5zM1003 -251v903h-904v903h904v-903h901v-903h-901z" />
    <glyph glyph-name="Q" unicode="Q" 
d="M1004 -406q-175 0 -341 72q-288 134 -423 416q-74 162 -80 339v1178q0 99 112 99q117 0 117 -99q0 -391 9 -555q246 263 608 263q206 0 404 -110q42 -23 82 -50q356 -249 356 -688q0 -297 -177 -533q-263 -332 -667 -332zM1010 -170q240 0 423 179.5t183 436.5
q0 126 -48 248q-179 375 -568 375q-177 0 -314 -93q-290 -174 -290 -513l2 -124q0 -110 126 -276q196 -233 486 -233zM655 282q-53 0 -113 47.5t-60 133.5q0 50 25 93q59 79 156 79q162 -12 162 -172q-6 -181 -170 -181z" />
    <glyph glyph-name="R" unicode="R" 
d="M314 398l-6.5 20.5t-7.5 57.5t13.5 83.5t54 97t113.5 100.5l136 -278l-303 -81v0zM679 1002h-10q-4 -2 -6 -2l-96 194l-282 -34l115 -236q-175 -76 -262 -180.5t-111 -216.5t-13 -210t32.5 -160l21.5 -62l908 263l-249 508q170 46 317 34t261 -52.5t178.5 -78.5l64.5 -38
l-308 -82l-88 165q-127 26 -280 3l209 -428l907 262l-67 76.5t-220 162.5t-404.5 128t-617.5 -16v0z" />
    <glyph glyph-name="S" unicode="S" 
d="M1005 -401q-360 0 -637.5 259t-277.5 652q0 259 97 427q150 263 411 386q281 144 310 229q10 43 20 144q111 -136 210 -211q83 -56 185 -111q196 -107 311 -206q276 -231 280 -681q0 -398 -270.5 -643t-638.5 -245zM1173 -300q113 0 184 29q121 44 121 85q0 24 -16 24
q-6 0 -16 -6q-61 -71 -259 -71q-164 0 -231 55q-2 6 -4 7l-4 2t-6 1q-12 0 -23 -12.5t-13 -24.5q0 -12 10 -22q67 -53 162 -63q48 -4 95 -4zM1122 -89q10 0 45 34q22 24 47.5 38.5t75.5 14.5q81 0 99 -53q13 -28 19 -28q30 0 30 34q0 6 -8 13t-14 24q-16 30 -37.5 49
t-88.5 19q-97 0 -172 -87q-20 -12 -20 -30q0 -10 14 -18q2 -10 10 -10zM1640 -51q79 0 142 99q53 91 53 251q0 31 -14.5 80.5t-44.5 90t-77 40.5q-55 0 -174 -105.5t-176 -105.5q-75 0 -188 77q-79 47 -173 90.5t-198 43.5q-143 0 -246.5 -80t-103.5 -202q0 -66 45 -121
q58 -69 105 -95q77 -61 200 -61q83 0 171 38.5t171 85.5q134 81 217 85q53 -6 156 -116q38 -38 70.5 -66.5t64.5 -28.5z" />
    <glyph glyph-name="T" unicode="T" 
d="M1579 -291q-9 0 -18 3l-557 329l-567 -325q-11 -7 -20 -7q-14 0 -25 10q-18 13 -18 31q0 5 117 655l-465 428q-15 10 -15 30q0 4 2 11q9 25 36 29l629 71l285 593q13 25 36 25q27 0 38 -25l274 -607l636 -57q36 -6 36 -42q0 -18 -11 -28l-459 -428l12 -90q-48 -5 -117 -5
q-111 0 -280 13l-265 21l635 446q-183 44 -400 44q-15 0 -143 -0.5t-308 -22.5q-188 -23 -201 -27h2q23 0 158.5 -7t301.5 -18t280 -31l-631 -461h16q90 -13 383 -25q63 -2 122 -2q232 0 449 36q72 14 133 39q-25 -26 -59 -46l-61 -31q84 -483 84 -488q0 -20 -18 -31
q-14 -10 -27 -10z" />
    <glyph glyph-name="U" unicode="U" 
d="M954 1698h98q6 -2 11 -2q14 -2 27 -2q141 -11 273 -66q188 -83 326 -235q217 -236 243 -554q0 -12 2 -25q0 -5 2 -9v-102l-2 -2v-5q-8 -178 -85 -341q-115 -247 -341 -396q-6 -4 -11 -10q-2 0 -4 -1q85 -138 239 -176v-158q-9 0 -17 -2q-19 -4 -35 -5q-17 -4 -34 -6
q-8 0 -17 -2h-74h-2q-5 2 -9 2q-72 6 -138 39q-98 55 -160 153q-7 13 -13 25q-6 9 -11 15q-17 -4 -34 -6q-42 -8 -83 -13q-173 -21 -341 24q-268 72 -452 279q-211 234 -238 548q-2 12 -2 25q-2 6 -2 13v96v2q0 4 2 8q2 18 4 41q4 43 11 89q57 286 264 491q238 234 567 264
q12 0 23 2q6 0 13 2zM1354 221v2q1 0 1 1v1q2 1 4 3v0q125 168 126 375q2 134 0 266q-1 64 -9 128q-34 215 -198 362q-143 126 -333 96q-140 -23 -236 -126q-171 -183 -175 -436q-2 -135 0 -273q2 -54 7 -111q33 -205 181 -352q136 -134 326 -117q25 4 49 9q12 2 23 6
q-79 138 -232 170v182q275 17 466 -186z" />
    <glyph glyph-name="V" unicode="V" 
d="M1322 564q0 -8 -8 -23l-360 -360q-9 -6 -23 -6q-16 0 -23 6l-361 362q-10 10 -10 21q0 17 10 25q11 10 23 10h231v359q0 14 10 24q8 9 21 9h197q11 0 23 -9q10 -10 10 -24v-359h229q13 0 23 -10q8 -8 8 -25zM1979 336q0 137 -86 246q-84 106 -218 137q40 61 40 144
q0 107 -74 183q-78 77 -187 77q-95 0 -168 -64q-59 149 -193 238q-135 87 -292 87q-218 0 -371 -153q-152 -152 -152 -368q0 -17 2 -46q-124 -57 -193 -169q-73 -114 -73 -247q0 -188 137 -322q132 -135 320 -135h1115q164 0 276 115q117 116 117 277z" />
    <glyph glyph-name="W" unicode="W" 
d="M951 -286h-13q-25 0 -25 39q21 125 21 155q0 28 -7.5 47.5t-33.5 30.5t-53 17q-362 50 -591.5 270.5t-229.5 515.5q0 220 132.5 400t355.5 288.5t496 108.5q269 0 493 -108.5t355.5 -288.5t131.5 -400q0 -263 -209 -489q-198 -224 -571 -460q-204 -126 -252 -126z
M770 535q41 0 46.5 4.5t5.5 228.5q0 221 -5.5 226.5t-13.5 5.5q-76 0 -83 -5.5t-7 -226.5q0 -224 7 -228.5t50 -4.5zM1242 535q43 0 48.5 4.5t5.5 228.5q0 221 -5.5 226.5t-13.5 5.5q-76 0 -82.5 -5.5t-6.5 -265.5q-196 267 -199 267t-7 2l-39 2q-45 0 -49.5 -5.5
t-4.5 -226.5q0 -224 4.5 -228.5t49.5 -4.5q52 0 52 19v255l202 -270q7 -4 45 -4zM635 535q19 0 19 54q0 52 -19 52h-187v342q0 17 -50 17q-56 0 -56 -17v-429q0 -19 17 -19h276zM1658 535q19 0 19 54q0 52 -19 52h-190v71q196 0 202.5 6.5t6.5 49.5q0 53 -19 53h-190v72h190
q19 0 19 53q0 54 -19 54q-284 0 -289.5 -5t-5.5 -227q0 -224 5.5 -228.5t13.5 -4.5h276z" />
    <glyph glyph-name="X" unicode="X" 
d="M1402 -275q13 0 13 11q0 4 -265 907t-270 907t-363 4q-13 0 -13 -19q-2 -55 -6 -84.5t-246 -878.5q-237 -826 -237 -832q0 -9 3 -12t137 -3q135 0 140.5 3t138.5 510h528l139 -502q4 -11 24 -11h277zM894 506h-392q146 544 191 782h4q36 -159 142 -563zM1809 1260
q74 0 122.5 44.5t48.5 125.5q0 150 -167 171q-74 0 -123 -45.5t-49 -125.5q0 -163 168 -170zM1944 -275q19 0 19 21v1307q0 21 -13 21h-267q-21 0 -21 -17l2 -1311q0 -21 20 -21h260z" />
    <glyph glyph-name="Y" unicode="Y" 
d="M1030 -224q-216 36 -363 89q-4 6 -14.5 6t-61.5 23q-58 15 -58 58q2 37 20.5 70t20.5 48q62 148 176 340q14 -384 280 -634zM533 798q-302 0 -438 198q-70 95 -70 176q0 33 10 62q68 175 326 175q424 0 655 -466q14 0 14 -11.5t5 -11.5q-294 -122 -502 -122zM1158 970
q-53 105 -53 235q0 54 12 99q66 229 242 229q134 0 134 -155q0 -253 -335 -408zM1807 41q-42 0 -89 27q-293 237 -293 613q0 181 148 181q23 0 44 -12q216 -76 316 -297q47 -118 47 -230q0 -282 -173 -282zM1433 -230q-302 0 -454 355q-68 143 -68 289q0 234 194 364
q138 72 154.5 72t22.5 6h11q-40 -64 -40 -192q0 -190 85 -384q95 -219 279 -359q45 -37 115 -50q-8 0 -8 -3t-7 -3t-16 -14q-128 -81 -268 -81z" />
    <glyph glyph-name="Z" unicode="Z" 
d="M1454 -334q-181 0 -344 91.5t-163 258.5t-10 250v244q0 226 -237 226q-260 0 -289 -242v-666q0 -146 -201 -146q-191 0 -191 138q0 895 8 1791q115 39 146 39q178 0 238 -241v-579q35 134 177.5 190.5t241.5 56.5q390 0 486 -485v-602q0 -121 130 -121q137 0 137 113v920
q0 154 163 154q228 0 228 -127v-873q0 -207 -168.5 -298.5t-351.5 -91.5zM1778 1239q-63 0 -129 29.5t-94 188.5v8q0 53 42 116.5t173 63.5q60 0 123.5 -27.5t88.5 -173.5q-33 -199 -204 -205z" />
    <glyph glyph-name="bracketleft" unicode="[" 
 />
    <glyph glyph-name="backslash" unicode="\" 
 />
    <glyph glyph-name="bracketright" unicode="]" 
 />
    <glyph glyph-name="asciicircum" unicode="^" 
d="M998 1693q-339 0 -578.5 -239.5t-239.5 -578.5q0 -304 170.5 -598t368 -486t279.5 -192t279.5 192t369 486t171.5 598q0 339 -240.5 578.5t-579.5 239.5zM998 376q-205 0 -350.5 145t-145.5 354q0 162 94 287q7 -78 64 -132t135 -54q84 0 142.5 57.5t58.5 141.5
q0 119 -114 181q58 13 116 13q205 0 351 -146.5t146 -347.5q0 -209 -146 -354t-351 -145z" />
    <glyph glyph-name="underscore" unicode="_" 
 />
    <glyph glyph-name="grave" unicode="`" 
d="M920 865q-185 17 -255 46t-70 122q0 56 45 96q69 87 280 105v-369zM1102 85v396q208 -16 272.5 -44t64.5 -107q0 -194 -337 -245zM1191 -401v40q-89 22 -89 86v80q315 18 501.5 166t186.5 379q0 441 -642 497h-46v380q159 -11 304 -85q97 -53 127.5 -86.5t30.5 -77.5
l31 -16l195 389l-27 22q-42 -33 -60 -33q-33 0 -53 16q-389 151 -548 151v77q0 58 89 82v36h-342v-36q71 -24 71 -82v-68q-312 -9 -486 -149t-174 -378t146.5 -340t513.5 -137v-416q-238 23 -371 104t-133 174l-34 16l-175 -409l28 -15q36 22 52 22q29 0 40 -11
q313 -154 593 -172v-80q0 -64 -71 -86v-40h342z" />
    <glyph glyph-name="a" unicode="a" 
d="M243 223q53 0 90 36.5t37 93.5v545q0 55 -37 92.5t-90 37.5q-54 0 -93 -37.5t-39 -92.5v-545q0 -57 39 -93.5t93 -36.5zM1769 223q53 0 89.5 36.5t36.5 93.5v545q0 55 -36.5 92.5t-89.5 37.5q-56 0 -93.5 -37.5t-37.5 -92.5v-545q0 -57 37.5 -93.5t93.5 -36.5zM1592 1048
q0 152 -82.5 277t-216.5 191l84 154l4 9q0 17 -20 17q-11 0 -103 -162q-127 53 -254 53q-134 0 -250 -53q-97 162 -106 162q-21 0 -21 -16q0 -3 95 -159q-138 -69 -222 -193.5t-84 -279.5h1176zM736 1260q-20 0 -34 14.5t-14 37.5q0 18 14 32.5t34 14.5q21 0 35.5 -14.5
t14.5 -32.5q0 -23 -14.5 -37.5t-35.5 -14.5zM1268 1260q-43 0 -43 52q0 18 12.5 32.5t30.5 14.5q24 0 39 -14.5t15 -32.5q0 -52 -54 -52zM1225 -401q54 0 92.5 38.5t38.5 97.5v284h91q59 0 99 41t40 96v845h-1163v-845q0 -55 40.5 -96t97.5 -41h96v-284q0 -59 37.5 -97.5
t91.5 -38.5q52 0 91 38.5t39 97.5v284h175v-284q0 -59 37.5 -97.5t96.5 -38.5z" />
    <glyph glyph-name="b" unicode="b" 
d="M996 903h-343q-55 0 -88.5 31.5t-33.5 82.5t33.5 85.5t88.5 34.5h343q51 0 85.5 -34.5t34.5 -85.5t-34.5 -82.5t-85.5 -31.5zM1351 185h-698q-55 0 -88.5 36.5t-33.5 85.5q0 51 33.5 82.5t88.5 31.5h698q49 0 82.5 -31.5t33.5 -82.5q0 -49 -33.5 -85.5t-82.5 -36.5z
M1973 829l-14 33l-27 20q-16 8 -52 10.5t-77.5 6.5t-79.5 7t-58 19q-27 23 -35 67.5t-16 101.5q-16 111 -27.5 141.5t-31.5 70.5q-29 68 -87 128t-123.5 104t-138.5 69.5t-130 37.5h-433q-132 0 -245.5 -48t-198 -133.5t-132.5 -199t-48 -243.5v-724q0 -131 48 -244
t132.5 -197.5t198 -133.5t245.5 -49h714q130 0 239.5 49t195 133.5t136.5 197.5t51 244v504z" />
    <glyph glyph-name="c" unicode="c" 
d="M1396 1147h194v196h-194v-196zM1001 1147q-80 0 -155 -27.5t-140 -70.5h-493v98q0 125 84.5 209.5t209.5 84.5h983q125 0 212 -84.5t87 -209.5v-98h-496q-67 43 -138 70.5t-154 27.5zM1001 948q121 0 208.5 -84.5t87.5 -210.5q0 -127 -87.5 -210.5t-208.5 -83.5
q-126 0 -212.5 83.5t-86.5 210.5q0 126 86.5 210.5t212.5 84.5zM1490 -135h-983q-125 0 -209.5 87t-84.5 208v788h392q-43 -65 -70.5 -138t-27.5 -157q0 -102 39 -191t104.5 -156t158.5 -106.5t192 -39.5q102 0 192 39.5t154.5 106.5t103.5 156t39 191q0 84 -27.5 157
t-66.5 138h393v-788q0 -121 -87 -208t-212 -87zM1983 1247q0 165 -113 279t-280 114h-1183q-165 0 -279 -114t-114 -279v-1183q0 -167 114 -280t279 -113h1183q167 0 280 113t113 280v1183z" />
    <glyph glyph-name="d" unicode="d" 
d="M1482 998v0q145 0 248 102.5t103 246.5q0 145 -103 248t-248 103q-146 0 -248 -103t-102 -248q0 -144 102 -246.5t248 -102.5zM845 1058q107 0 181.5 74.5t74.5 181.5q0 104 -74.5 180t-181.5 76q-106 0 -182 -76t-76 -180q2 -109 77 -182.5t181 -73.5v0zM335 1087
q87 0 148.5 62t61.5 147q0 88 -61.5 149t-148.5 61t-148 -61t-61 -149q0 -85 61 -147t148 -62v0zM1162 811q-28 53 -70 97q-103 103 -247 103q-147 0 -248 -103l-10 -7q-19 33 -48 64q-86 83 -204 83q-120 0 -203.5 -83.5t-83.5 -201.5v-18q0 -2 2 -2h-2v-494h446v-217h510
v-433h955v857q0 198 -140 338t-337 140q-187 0 -320 -123z" />
    <glyph glyph-name="e" unicode="e" 
d="M163 600q-1 29 -1 60q0 173 72 324q207 -542 396 -1060q-436 204 -467 676zM1277 -113q-128 -59 -268 -59q-118 0 -243 42q44 134 121 355q93 256 125 357q51 -124 134 -349q88 -242 131 -346zM1546 706q-6 -49 -70 -256q-43 -137 -75 -250q-5 11 -75 220
q-206 586 -226 655q121 11 121 44v5q-6 23 -77 23q-21 0 -50 -5q-77 -2 -149 -2q-70 0 -130 2q-23 5 -44 5q-67 0 -67 -30v-1q0 -23 119 -41l-3 11l135 -362q-188 -555 -188 -552l4 18q-105 297 -304 885q124 18 124 33v3q0 29 -91 29h-44q-64 -1 -173 -1q228 339 633 369
q36 1 72 1q313 0 550 -214h-7q-73 0 -112 -65q-23 -41 -23 -83q0 -31 13 -69q137 -367 137 -372zM1450 -37q49 154 135 389q111 300 142 385q38 118 38 245q0 33 -2 69h2v-4q101 -178 101 -380q0 -28 -3 -54q-26 -423 -413 -650zM1979 714q-31 377 -286 635
q-260 255 -630 286h-124q-374 -31 -630 -286q-260 -263 -288 -635v-117q31 -374 288 -634q256 -256 630 -287h124q370 31 630 287q255 260 286 634v117z" />
    <glyph glyph-name="f" unicode="f" 
d="M1157 -401v955h323l46 371h-369v208q0 89 11 109q0 8 15 37q35 65 186 65h172v332q-137 17 -286 17q-289 0 -411 -211q-71 -119 -71 -273v-284h-319v-371h319v-955h384z" />
    <glyph glyph-name="g" unicode="g" 
d="M640 33q199 0 375 119q224 176 224 515q0 37 -3 78v4q-596 0 -596 -4v-209q18 -2 355 -4q0 -14 -21 -64q-12 -45 -92 -126q-111 -77 -242 -77q-169 0 -297 133q-90 108 -90 260q0 112 51 202q39 70 100 113q95 77 227 77q135 0 264 -84q5 0 21 17q102 100 138 146v1
q-198 154 -390 154h-26q-202 0 -367 -121q-170 -123 -229 -319q-28 -76 -28 -197q0 -102 36 -201q79 -204 255 -320q154 -93 335 -93zM1798 390l1 180l180 2v177h-180l-1 180h-176v-180h-178v-177l178 -2v-180h176z" />
    <glyph glyph-name="h" unicode="h" 
d="M682 -401q53 0 92.5 15.5t80.5 29.5t86.5 27.5t112.5 13.5q94 0 192 -43t178 -43q98 0 195 84q71 59 153 174q76 103 116 204q34 84 34 99q-86 34 -147 92q-152 131 -152 330q0 202 173 355q56 44 69 44q-48 68 -109 109t-120 63t-107.5 29.5t-71.5 7.5h-42
q-94 0 -208 -42q-143 -51 -185 -51q-35 0 -121 30q-160 58 -250 58q-145 -2 -268 -72t-197 -192q-96 -152 -96 -360q0 -178 73 -378q59 -172 166 -319q88 -122 158 -183q94 -82 180 -82h15zM1020 1213q86 0 172.5 41t145.5 110q119 134 119 290l-4 44q-183 -10 -326 -156
q-124 -136 -124 -277q0 -27 3 -52h14z" />
    <glyph glyph-name="i" unicode="i" 
d="M1113 796q0 6 6 6v-6h-6zM461 983h-424v-1269h424v1269zM250 1160q107 0 175 62.5t68 152.5q-8 97 -72 157t-165 60q-108 0 -175 -60t-67 -157q0 -90 63 -152.5t173 -62.5zM1982 439q0 298 -136 436t-347 138q-173 0 -254.5 -72t-125.5 -139v181h-422v-682v-587h422v709
v55.5t10 47.5q26 59 78 107.5t143 48.5q112 0 160.5 -82t48.5 -210v-676h423v725z" />
    <glyph glyph-name="j" unicode="j" 
d="M1798 472h-13q-24 0 -117 -10v353h122q8 -259 8 -325v-18zM1478 970v-667q228 -10 293 -10h19v-74h-312v-150h505v901h-505zM1081 462v353h120v-353h-120zM885 970v-667q237 -10 297 -10h26l-7 -74h-316v-150h509v901h-509zM606 970v-667h197v667h-197zM606 1244v-188
q147 -10 183 -10q17 0 17 1h-3v197h-197zM207 462l-3 -8v27q0 74 8 334h122v-353h-127zM342 1244l-8 -274h-315v-667h506v941h-183z" />
    <glyph glyph-name="k" unicode="k" 
d="M33 1290q-7 0 -9 -7v-1203q0 -9 9 -9h451q198 0 291 24q247 98 247 342v4q0 211 -177 284q143 83 143 246q0 25 -7 68q-61 251 -351 251h-597zM1260 1222q-5 0 -7 -8v-109q0 -12 7 -12h518q11 0 11 12v109q0 8 -11 8h-518zM271 1076h289q179 0 179 -129v-3q0 -20 -11 -63
q-27 -71 -218 -71h-239v266zM1536 999q-98 0 -188 -35q-258 -120 -258 -414v-72q0 -136 68 -245q143 -192 378 -192q168 0 274 70q160 127 160 213q0 16 -9 16h-228q-59 -106 -183 -106q-21 0 -55 9q-169 45 -169 212h649q9 0 9 9v73q0 43 -7 92q-72 370 -441 370zM1337 616
q0 13 11 47q43 136 188 136q29 0 68 -7q133 -52 133 -176h-400zM271 607h298q195 0 195 -143v-16q0 -160 -174 -160h-319v319z" />
    <glyph glyph-name="l" unicode="l" 
d="M467 203q91 0 173 34t143.5 95.5t96 144t34.5 173.5q0 92 -34.5 174t-96 144t-143.5 96t-173 34q-92 0 -174.5 -34t-144 -96t-95.5 -144t-34 -174q0 -91 34 -173.5t95.5 -144t144 -95.5t174.5 -34zM1538 203q94 0 175.5 34t143 95.5t96.5 144t35 173.5q0 92 -35 174
t-96.5 144t-143 96t-175.5 34q-91 0 -173 -34t-142.5 -96t-95.5 -144t-35 -174q0 -91 35 -173.5t95.5 -144t142.5 -95.5t173 -34z" />
    <glyph glyph-name="m" unicode="m" 
d="M1546 1158q-298 18 -422 18l4 517h-313q-78 -467 -419 -575v-273q151 -22 197 -22q18 0 18 6v-134q0 -104 -10 -252q-4 -101 -4 -175q0 -102 10 -168q42 -341 372 -459q121 -42 239 -42q194 0 381 122q-24 76 -107 303q-96 -46 -168 -46q-160 0 -196 240q0 8 12 627h406
v313z" />
    <glyph glyph-name="n" unicode="n" 
d="M1339 -53q-155 -69 -326 -69q-43 0 -88 6q-165 16 -352 129l-308 -99q7 22 72 218l29 75q-2 0 -52 85q-81 146 -96 307q-7 47 -7 94q0 392 340 640q182 131 403 146h63q376 0 615 -286q198 -228 198 -500q0 -115 -34 -239q-110 -353 -457 -507zM1979 738
q-34 369 -282 615q-241 245 -619 277h-117q-396 -40 -629 -291q-270 -288 -274 -651q0 -223 112 -448q12 -29 12 -56q0 -31 -10 -59q-155 -448 -155 -452l7 13q2 -9 7 -9q97 36 261 88q212 65 263 81q237 -119 462 -119h27q266 11 471 137q414 255 464 755v119zM1396 518
q-102 51 -124 51h-2q-12 0 -59 -60q-47 -59 -63 -61h-3q-29 0 -114 49q-92 52 -172 153q-63 84 -63 104q0 2 43 58q34 39 34 66q0 9 -47 121q-45 100 -57 108q-22 9 -45 9q-26 0 -51 -6q-122 -32 -122 -219q0 -108 113 -270q157 -219 340 -306q141 -64 247 -82h21
q60 0 124 30q108 56 108 169q0 15 -2 27q-21 18 -106 59z" />
    <glyph glyph-name="o" unicode="o" 
d="M951 931q-333 -102 -773 -108q87 399 458 586q93 -117 315 -478zM375 89q-215 230 -215 570v14q448 0 842 120h5q0 -19 82 -141q-448 -144 -714 -563zM1327 -121q-199 -106 -376 -106q-256 0 -468 216q214 366 658 520q110 -247 186 -630zM1117 977q-102 182 -312 492
q116 31 223 31q297 0 525 -218q-138 -187 -436 -305zM1469 -47q-44 238 -162 599q102 15 197 15q169 0 325 -53q-68 -366 -360 -561zM1839 659q-204 39 -388 39q-101 0 -195 -13q-10 28 -39 84q-27 54 -36 83q290 114 466 328q183 -216 192 -521zM1983 705q-33 390 -287 643
q-266 259 -642 287h-115q-379 -33 -638 -287q-259 -264 -287 -638v-120q107 -821 925 -924h119q379 33 638 287q254 258 287 637v115z" />
    <glyph glyph-name="p" unicode="p" 
d="M504 1535q-40 -22 -106 -86q-61 -64 -84 -106q-129 -193 -129 -396q0 -204 95 -338q25 -38 77 -82q70 -42 93 -42h5q9 0 20 4q14 12 18 36q27 100 27 114q0 13 -14 25q-88 103 -88 249q0 205 123 364q36 45 86 86q165 129 378 129q217 0 357 -113q150 -132 150 -349
q0 -215 -79 -391q-23 -53 -48 -89q-109 -158 -254 -158q-70 0 -126 40q-70 57 -70 139v9q0 38 40 165q72 224 72 305q0 55 -20 98q-47 82 -143 82q-88 0 -153 -80q-79 -97 -79 -228q0 -107 40 -191l-143 -613q-33 -120 -33 -249v-25q0 -102 16 -217q0 -19 11 -23h6h7
q3 11 37 52q72 95 113 172q32 68 68 149q29 109 86 356q13 -16 34 -43q34 -30 54 -41q102 -66 206 -66q7 1 9 1h2q104 0 204 40q175 71 294 243q143 235 143 540q0 116 -41 232q-92 217 -292 341q-190 118 -430 118q-312 0 -539 -163z" />
    <glyph glyph-name="q" unicode="q" 
d="M1739 466q-73 78 -78 103v8q0 30 32 79q24 38 116 161q72 93 117 161q52 95 52 141q0 10 -2 18q-13 28 -78 28h-9q-109 -4 -228 -4q-105 0 -114 -3q-23 -8 -41 -62q-48 -112 -104 -207q-75 -126 -123 -181q-39 -39 -66 -39h-1q-41 2 -48 94q-3 16 -3 54q0 72 10 220v24
q0 77 -18 104q-31 54 -227 54q-36 0 -74 -5q-162 -7 -185 -77q79 -23 97 -58q26 -46 26 -218q0 -66 -10 -116q-13 -74 -47 -81h-9q-24 0 -57 36q-16 22 -46 59q-97 140 -177 325q-21 53 -36 66q-25 15 -131 15h-94q-156 0 -164 -28q-5 -4 -5 -12q0 -24 31 -92
q168 -354 343 -594q133 -177 279 -257q153 -86 302 -86h15q152 9 165 28q10 7 19 94q3 51 16 82q21 51 61 56h3q38 0 89 -56q6 -5 68 -79q91 -105 173 -125q13 -1 126 -1h56l54 1q156 0 164 56q5 5 5 8q0 40 -62 119q-40 47 -182 187z" />
    <glyph glyph-name="r" unicode="r" 
d="M16 1683v-399q419 -55 756 -246q139 -87 281 -208t257 -289t193.5 -393.5t94.5 -514.5h384q-6 551 -209 980q-90 189 -230 372t-351.5 329.5t-499.5 247.5t-676 121zM16 591q244 -29 439 -130q85 -49 164.5 -123t147.5 -174t110 -233t52 -308h382q-12 368 -152 667
q-61 122 -154.5 246t-230 224.5t-323.5 163t-435 72.5v-405zM303 -377q120 0 204 83.5t84 203.5q0 116 -84 202t-204 86q-116 0 -201.5 -86t-85.5 -202q0 -120 85.5 -203.5t201.5 -83.5z" />
    <glyph glyph-name="s" unicode="s" 
d="M1011 -245q89 0 149 31t115 67q94 60 154 76q21 5 79 5q62 0 108 -11q19 -5 43 -5q38 0 38 43q0 12 3 22q17 59 29 59q223 37 252 90v16l2 5q0 10 -19 17q-108 16 -182 69q-133 96 -205 211q-28 44 -28 54q-17 24 -17 50q0 58 64 82l96 33q92 43 92 77q-12 39 -55 51
q-8 7 -32 7q-21 0 -29 -7q-64 -22 -98 -22q-24 0 -37 8t-18 8q17 132 17 262q0 204 -151 336q-128 109 -269 130q-63 7 -101 7q-60 0 -120 -7q-149 -21 -272 -130q-151 -132 -151 -336q0 -86 14 -262q-5 0 -20 -8t-35 -8q-43 0 -103 22l-24 7q-24 0 -53 -12.5t-29 -50.5
q0 -24 34 -44.5t154 -60.5q60 -22 60 -79q0 -24 -19 -53q0 -10 -23 -55.5t-78 -103.5q-145 -154 -310 -175q-17 -7 -17 -17v-5v-16q29 -53 252 -90q12 0 29 -59q3 -10 3 -22q0 -48 40 -48q8 0 38 10q46 11 111 11q58 0 84 -5q45 -12 147 -76q53 -36 115 -67t148 -31h25z" />
    <glyph glyph-name="t" unicode="t" 
d="M636 -158q419 0 745 273q231 209 333 494q68 195 68 366v70q36 21 111 96q60 65 90 113h-2q-154 -64 -226 -64v5q26 11 85 65q64 80 89 154q-80 -47 -166 -74q-77 -23 -92 -23q-134 125 -292 125q-163 0 -285 -114q-121 -122 -121 -289q0 -41 10 -91q-46 0 -175 19
q-222 58 -389 162q-129 80 -269 240q-52 -101 -52 -194q0 -150 95 -268q47 -56 79 -74v-2q-81 0 -177 47q0 -167 120 -294q77 -66 141 -86q47 -18 56 -18q0 -3 -45 -11l-47 -1h-14q-32 0 -72 5q49 -142 167 -215q102 -64 210 -64q-61 -49 -115 -78q-186 -96 -373 -96
q-66 0 -109 5q281 -183 622 -183z" />
    <glyph glyph-name="u" unicode="u" 
d="M424 663q0 98 31 187l-339 259q-103 -205 -103 -446q0 -239 103 -446l338 261q-30 88 -30 185v0zM1019 1258q213 0 370 -133l294 293q-279 251 -664 251q-596 0 -903 -560l339 -259q168 408 564 408v0zM1019 68q-396 0 -564 408l-339 -259q307 -560 903 -560
q369 0 655 251l-321 249q-141 -89 -334 -89v0zM454 478l-338 -261v0l339 259v2h-1v0zM1956 847h-937v-389h539q-44 -200 -205 -301l321 -249q305 263 305 755q0 90 -23 184v0z" />
    <glyph glyph-name="v" unicode="v" 
d="M1582 -348q118 0 229 84q169 134 169 271q0 89 -119 175q-106 83 -228 149q-85 73 -167 73q-6 0 -52 -3t-119 -115q-41 -63 -116 -63q-39 0 -86 22q-332 135 -479 471q-32 53 -32 106q0 16 6 52.5t81 83.5q43 29 74.5 67.5t31.5 104.5q-6 53 -73 159q-218 332 -347 332
q-32 0 -65 -12q-271 -100 -271 -333q0 -75 33 -161q424 -1013 1436 -1436q43 -27 94 -27zM1908 622q45 0 49 29q6 14 6 32q0 8 -3 21.5t-3 35.5q0 235 -115 434.5t-313.5 328t-435.5 142.5q-8 0 -24.5 2t-36.5 2q-49 0 -49 -57q0 -28 16.5 -36.5t39 -9.5t36.5 -9
q371 -53 554.5 -242.5t234.5 -560.5l-3 -39q0 -20 3.5 -46.5t43.5 -26.5zM1680 716q39 14 39 63v20q0 13 2 19q0 216 -157 384t-385 207q-27 8 -65 8q-9 0 -31 -4t-27 -63q0 -47 74 -47q246 -51 349 -158t136 -327v-35q0 -22 9 -44.5t56 -22.5zM1444 793q38 6 43.5 29.5
t5.5 50.5q0 102 -92 198.5t-198 96.5q-24 0 -43 -2q-38 -8 -38 -53q0 -40 57 -49q195 -28 204 -218q12 -53 61 -53z" />
    <glyph glyph-name="w" unicode="w" 
d="M18 1360v-670l804 4l-4 776zM818 608l-800 4v-672l800 -111v779zM916 1485v-789l1066 8v936zM1984 598h-1068v-781l1066 -151z" />
    <glyph glyph-name="x" unicode="x" 
d="M647 347q-89 0 -125 88q-17 52 -17 86q0 113 149 121q163 0 163 -165q0 -94 -105 -122q-37 -8 -65 -8zM997 -29q-119 0 -239 46q-62 25 -108 67q-21 20 -21 37q0 19 41 30q145 -122 316 -122q128 0 268 75q75 36 102 36q9 0 19 -4q0 -65 -124.5 -115t-253.5 -50z
M1335 341q-54 0 -102 42.5t-48 103.5q0 144 144 155q126 0 151 -124q4 -25 4 -50q0 -88 -96 -117q-27 -10 -53 -10zM976 -220q178 0 364 51q516 154 516 589v29q125 53 125 170q0 44 -16 90q-48 157 -186 157q-32 0 -73 -9q-32 -6 -93 -54q-181 148 -566 186q92 414 100 449
l310 -66q23 -149 148 -149q159 0 159 136v46q-27 134 -144 134l-38 -6q-29 -2 -65.5 -38t-53.5 -40q-13 0 -186 36q-163 35 -182 35q-23 -12 -48 -123l-84 -418q-234 -2 -458 -113l-121 -63q0 4 -35 29q-57 34 -116 34q-79 0 -149 -74.5t-70 -153.5q0 -54 35 -107
q1 0 95 -94l-2 -54q0 -270 290 -454q251 -155 544 -155z" />
    <glyph glyph-name="y" unicode="y" 
d="M1009 -42q147 0 380 3q305 12 351 21q72 12 120 51q56 46 80 117q48 119 48 420v161q0 140 -18 317q-25 135 -77 193q-28 28 -38 29q-46 38 -109 46q-141 28 -745 28q-158 0 -362 -4q-340 -10 -390 -24q-89 -16 -153 -90q-34 -46 -66 -178q-16 -177 -16 -317
q0 -228 9 -359q8 -121 24 -161q15 -64 28 -99q46 -84 154 -121l79 -10q30 -8 183 -15q355 -8 518 -8zM797 395v555q10 -5 436 -227q95 -51 95 -53z" />
    <glyph glyph-name="z" unicode="z" 
d="M842 1090l-823 -868l748 407l391 -407l821 868l-745 -402z" />
    <glyph glyph-name="braceleft" unicode="{" 
 />
    <glyph glyph-name="bar" unicode="|" 
 />
    <glyph glyph-name="braceright" unicode="}" 
 />
    <glyph glyph-name="asciitilde" unicode="~" 
 />
    <glyph glyph-name="exclamdown" unicode="&#xa1;" 
 />
    <glyph glyph-name="cent" unicode="&#xa2;" 
 />
    <glyph glyph-name="sterling" unicode="&#xa3;" 
 />
    <glyph glyph-name="currency" unicode="&#xa4;" 
 />
    <glyph glyph-name="yen" unicode="&#xa5;" 
 />
    <glyph glyph-name="brokenbar" unicode="&#xa6;" 
 />
    <glyph glyph-name="section" unicode="&#xa7;" 
 />
    <glyph glyph-name="dieresis" unicode="&#xa8;" 
 />
    <glyph glyph-name="copyright" unicode="&#xa9;" 
 />
    <glyph glyph-name="ordfeminine" unicode="&#xaa;" 
 />
    <glyph glyph-name="guillemotleft" unicode="&#xab;" 
 />
    <glyph glyph-name="logicalnot" unicode="&#xac;" 
 />
    <glyph glyph-name="registered" unicode="&#xae;" 
 />
    <glyph glyph-name="macron" unicode="&#xaf;" 
 />
    <glyph glyph-name="degree" unicode="&#xb0;" 
 />
    <glyph glyph-name="plusminus" unicode="&#xb1;" 
 />
    <glyph glyph-name="uni00B2" unicode="&#xb2;" 
 />
    <glyph glyph-name="uni00B3" unicode="&#xb3;" 
 />
    <glyph glyph-name="acute" unicode="&#xb4;" 
 />
    <glyph glyph-name="mu" unicode="&#xb5;" 
 />
    <glyph glyph-name="paragraph" unicode="&#xb6;" 
 />
    <glyph glyph-name="periodcentered" unicode="&#xb7;" 
 />
    <glyph glyph-name="periodcentered" unicode="&#x2219;" 
 />
    <glyph glyph-name="cedilla" unicode="&#xb8;" 
 />
    <glyph glyph-name="uni00B9" unicode="&#xb9;" 
 />
    <glyph glyph-name="ordmasculine" unicode="&#xba;" 
 />
    <glyph glyph-name="guillemotright" unicode="&#xbb;" 
 />
    <glyph glyph-name="onequarter" unicode="&#xbc;" 
 />
    <glyph glyph-name="onehalf" unicode="&#xbd;" 
 />
    <glyph glyph-name="threequarters" unicode="&#xbe;" 
 />
    <glyph glyph-name="questiondown" unicode="&#xbf;" 
 />
    <glyph glyph-name="Agrave" unicode="&#xc0;" horiz-adv-x="2406" 
 />
    <glyph glyph-name="Aacute" unicode="&#xc1;" horiz-adv-x="2406" 
 />
    <glyph glyph-name="Acircumflex" unicode="&#xc2;" 
 />
    <glyph glyph-name="Atilde" unicode="&#xc3;" 
 />
    <glyph glyph-name="Adieresis" unicode="&#xc4;" 
 />
    <glyph glyph-name="Aring" unicode="&#xc5;" 
 />
    <glyph glyph-name="AE" unicode="&#xc6;" 
 />
    <glyph glyph-name="Ccedilla" unicode="&#xc7;" 
 />
    <glyph glyph-name="Egrave" unicode="&#xc8;" 
 />
    <glyph glyph-name="Eacute" unicode="&#xc9;" 
 />
    <glyph glyph-name="Ecircumflex" unicode="&#xca;" 
 />
    <glyph glyph-name="Edieresis" unicode="&#xcb;" 
 />
    <glyph glyph-name="Igrave" unicode="&#xcc;" 
 />
    <glyph glyph-name="Iacute" unicode="&#xcd;" 
 />
    <glyph glyph-name="Icircumflex" unicode="&#xce;" 
 />
    <glyph glyph-name="Idieresis" unicode="&#xcf;" horiz-adv-x="657" 
 />
    <glyph glyph-name="Eth" unicode="&#xd0;" horiz-adv-x="1518" 
 />
    <glyph glyph-name="Ntilde" unicode="&#xd1;" horiz-adv-x="1554" 
 />
    <glyph glyph-name="Ograve" unicode="&#xd2;" horiz-adv-x="1614" 
 />
    <glyph glyph-name="Oacute" unicode="&#xd3;" horiz-adv-x="1614" 
 />
    <glyph glyph-name="Ocircumflex" unicode="&#xd4;" horiz-adv-x="1614" 
 />
    <glyph glyph-name="Otilde" unicode="&#xd5;" horiz-adv-x="1614" 
 />
    <glyph glyph-name="Odieresis" unicode="&#xd6;" horiz-adv-x="1614" 
 />
    <glyph glyph-name="multiply" unicode="&#xd7;" horiz-adv-x="1014" 
 />
    <glyph glyph-name="Oslash" unicode="&#xd8;" horiz-adv-x="1614" 
 />
    <glyph glyph-name="Ugrave" unicode="&#xd9;" 
 />
    <glyph glyph-name="Uacute" unicode="&#xda;" horiz-adv-x="1501" 
 />
    <glyph glyph-name="Ucircumflex" unicode="&#xdb;" horiz-adv-x="1501" 
 />
    <glyph glyph-name="Yacute" unicode="&#xdd;" 
 />
    <glyph glyph-name="Thorn" unicode="&#xde;" horiz-adv-x="1120" 
 />
    <glyph glyph-name="germandbls" unicode="&#xdf;" horiz-adv-x="1251" 
 />
    <glyph glyph-name="agrave" unicode="&#xe0;" 
 />
    <glyph glyph-name="aacute" unicode="&#xe1;" horiz-adv-x="922" 
 />
    <glyph glyph-name="acircumflex" unicode="&#xe2;" horiz-adv-x="922" 
 />
    <glyph glyph-name="atilde" unicode="&#xe3;" horiz-adv-x="922" 
 />
    <glyph glyph-name="adieresis" unicode="&#xe4;" horiz-adv-x="922" 
 />
    <glyph glyph-name="aring" unicode="&#xe5;" horiz-adv-x="922" 
 />
    <glyph glyph-name="ae" unicode="&#xe6;" horiz-adv-x="1454" 
 />
    <glyph glyph-name="ccedilla" unicode="&#xe7;" 
 />
    <glyph glyph-name="egrave" unicode="&#xe8;" 
 />
    <glyph glyph-name="eacute" unicode="&#xe9;" 
 />
    <glyph glyph-name="ecircumflex" unicode="&#xea;" horiz-adv-x="909" 
 />
    <glyph glyph-name="edieresis" unicode="&#xeb;" 
 />
    <glyph glyph-name="igrave" unicode="&#xec;" horiz-adv-x="514" 
 />
    <glyph glyph-name="iacute" unicode="&#xed;" horiz-adv-x="514" 
 />
    <glyph glyph-name="icircumflex" unicode="&#xee;" horiz-adv-x="514" 
 />
    <glyph glyph-name="idieresis" unicode="&#xef;" horiz-adv-x="514" 
 />
    <glyph glyph-name="eth" unicode="&#xf0;" horiz-adv-x="1139" 
 />
    <glyph glyph-name="ntilde" unicode="&#xf1;" horiz-adv-x="1108" 
 />
    <glyph glyph-name="ograve" unicode="&#xf2;" 
 />
    <glyph glyph-name="oacute" unicode="&#xf3;" horiz-adv-x="1010" 
 />
    <glyph glyph-name="ocircumflex" unicode="&#xf4;" horiz-adv-x="1010" 
 />
    <glyph glyph-name="otilde" unicode="&#xf5;" horiz-adv-x="1010" 
 />
    <glyph glyph-name="odieresis" unicode="&#xf6;" horiz-adv-x="1010" 
 />
    <glyph glyph-name="divide" unicode="&#xf7;" horiz-adv-x="1014" 
 />
    <glyph glyph-name="oslash" unicode="&#xf8;" 
 />
    <glyph glyph-name="ugrave" unicode="&#xf9;" 
 />
    <glyph glyph-name="uacute" unicode="&#xfa;" horiz-adv-x="1059" 
 />
    <glyph glyph-name="ucircumflex" unicode="&#xfb;" horiz-adv-x="1059" 
 />
    <glyph glyph-name="udieresis" unicode="&#xfc;" horiz-adv-x="1059" 
 />
    <glyph glyph-name="yacute" unicode="&#xfd;" horiz-adv-x="868" 
 />
    <glyph glyph-name="thorn" unicode="&#xfe;" horiz-adv-x="1010" 
 />
    <glyph glyph-name="ydieresis" unicode="&#xff;" horiz-adv-x="868" 
 />
    <glyph glyph-name="dotlessi" unicode="&#x131;" 
 />
    <glyph glyph-name="circumflex" unicode="&#x2c6;" 
 />
    <glyph glyph-name="caron" unicode="&#x2c7;" horiz-adv-x="1024" 
 />
    <glyph glyph-name="uni02C9" unicode="&#x2c9;" horiz-adv-x="1024" 
 />
    <glyph glyph-name="breve" unicode="&#x2d8;" horiz-adv-x="1024" 
 />
    <glyph glyph-name="dotaccent" unicode="&#x2d9;" horiz-adv-x="1024" 
 />
    <glyph glyph-name="ring" unicode="&#x2da;" 
 />
    <glyph glyph-name="ogonek" unicode="&#x2db;" horiz-adv-x="1024" 
 />
    <glyph glyph-name="tilde" unicode="&#x2dc;" 
 />
    <glyph glyph-name="hungarumlaut" unicode="&#x2dd;" 
 />
    <glyph glyph-name="endash" unicode="&#x2013;" 
 />
    <glyph glyph-name="emdash" unicode="&#x2014;" 
 />
    <glyph glyph-name="quoteleft" unicode="&#x2018;" 
 />
    <glyph glyph-name="quoteright" unicode="&#x2019;" 
 />
    <glyph glyph-name="quotesinglbase" unicode="&#x201a;" 
 />
    <glyph glyph-name="quotedblleft" unicode="&#x201c;" 
 />
    <glyph glyph-name="quotedblright" unicode="&#x201d;" 
 />
    <glyph glyph-name="quotedblbase" unicode="&#x201e;" 
 />
    <glyph glyph-name="dagger" unicode="&#x2020;" 
 />
    <glyph glyph-name="daggerdbl" unicode="&#x2021;" 
 />
    <glyph glyph-name="bullet" unicode="&#x2022;" 
 />
    <glyph glyph-name="ellipsis" unicode="&#x2026;" 
 />
    <glyph glyph-name="guilsinglleft" unicode="&#x2039;" horiz-adv-x="631" 
 />
    <glyph glyph-name="guilsinglright" unicode="&#x203a;" horiz-adv-x="631" 
 />
    <glyph glyph-name="fraction" unicode="&#x2044;" 
 />
    <glyph glyph-name="fraction" unicode="&#x2215;" 
 />
    <glyph glyph-name="franc" unicode="&#x20a3;" 
 />
    <glyph glyph-name="lira" unicode="&#x20a4;" 
 />
    <glyph glyph-name="peseta" unicode="&#x20a7;" 
 />
    <glyph glyph-name="Euro" unicode="&#x20ac;" 
 />
    <glyph glyph-name="uni2116" unicode="&#x2116;" horiz-adv-x="2271" 
 />
    <glyph glyph-name="trademark" unicode="&#x2122;" horiz-adv-x="1497" 
 />
    <glyph glyph-name="partialdiff" unicode="&#x2202;" horiz-adv-x="1014" 
 />
    <glyph glyph-name="Delta" unicode="&#x2206;" 
 />
    <glyph glyph-name="product" unicode="&#x220f;" horiz-adv-x="1515" 
 />
    <glyph glyph-name="summation" unicode="&#x2211;" horiz-adv-x="1206" 
 />
    <glyph glyph-name="minus" unicode="&#x2212;" 
 />
    <glyph glyph-name="radical" unicode="&#x221a;" horiz-adv-x="1014" 
 />
    <glyph glyph-name="infinity" unicode="&#x221e;" 
 />
    <glyph glyph-name="integral" unicode="&#x222b;" horiz-adv-x="665" 
 />
    <glyph glyph-name="approxequal" unicode="&#x2248;" 
 />
    <glyph glyph-name="lessequal" unicode="&#x2264;" horiz-adv-x="1014" 
 />
    <glyph glyph-name="greaterequal" unicode="&#x2265;" horiz-adv-x="1014" 
 />
    <glyph glyph-name="uniF001" unicode="&#xf001;" horiz-adv-x="1073" 
 />
    <glyph glyph-name="uniF001" unicode="&#xfb01;" horiz-adv-x="1073" 
 />
    <glyph glyph-name="uniF002" unicode="&#xf002;" 
d="M261 -8v0q0 10 5 15q6 4 12 4q5 0 9 -1q4 -3 6 -8q2 -3 2 -10h-34zM261 -11v0h49q0 13 -7 21q-8 8 -20 8q-15 0 -25 -11q-9 -10 -9 -29q0 -17 9 -27q10 -11 22 -11q13 0 20 10q9 9 10 19l-2 2q-4 -10 -9 -14q-4 -4 -12 -4q-11 0 -19 10q-9 9 -7 26zM345 56v0h-3l-22 -9
l1 -3q4 1 5 1q3 0 4 -1q2 -1 2 -4q1 -2 1 -14v-67q0 -7 -1 -8q-2 -3 -3 -4q-3 -1 -8 -1v-3h35v3q-5 0 -6 1q-3 1 -4 4q-1 1 -1 8v97zM367 -15v0v-12h41v12h-41zM441 56v0h-4l-23 -9l2 -3q4 1 6 1t3 -1t2 -4v-14v-67v-8q-1 -3 -2 -3q-4 -2 -9 -2v-3h36v3q-5 0 -7 1q-3 1 -3 4
q-1 0 -1 8v38q6 8 10 9q4 3 8 3t7 -3q2 -1 3 -5q2 -4 2 -16v-26v-8q-2 -1 -3 -3q-2 -2 -8 -2h-1v-3h35v3q-3 0 -6 1q-1 1 -3 4q-1 1 -1 8v26q0 13 -1 18q-3 7 -8 11q-4 4 -9 4q-6 0 -12 -4q-4 -3 -13 -12v54zM542 -41v0q-11 -8 -16 -8q-4 0 -8 2q-4 4 -4 11q0 5 3 8
q4 4 10 8q3 1 15 6v-27zM542 -48v0q0 -5 2 -8q3 -2 6 -2q9 0 18 10v5q-5 -5 -7 -6h-2t-3 1q-1 0 -1 3v13v24q0 11 -1 15q-3 4 -7 7q-7 4 -17 4q-12 0 -20 -7q-5 -5 -5 -12q0 -3 1 -6q3 -1 4 -1q3 0 5 1q2 3 2 6v6q0 2 4 5q2 3 8 3t9 -4q4 -4 4 -16v-3q-19 -5 -28 -10
q-6 -5 -10 -11q-3 -4 -3 -9q0 -9 5 -13q4 -5 12 -5q5 0 11 1q1 1 13 9zM594 18v0h-4l-22 -9l1 -3q3 1 6 1q2 0 4 -1q1 -1 1 -4q1 -3 1 -14v-29v-8q-1 -1 -4 -3q-2 -2 -8 -2v-3h38v3q-5 0 -7 1l-4 4q-2 2 -2 9v34q4 8 8 12q2 1 3 1t4 -2q4 -3 6 -3q4 0 6 1q2 3 2 7q0 1 -2 5
q-4 3 -8 3q-9 0 -19 -17v17zM647 18v0h-1l-23 -9l2 -3q2 1 3 1q3 0 4 -1q2 -1 2 -4q1 -3 1 -14v-29v-8q-1 -1 -4 -3t-6 -2v-3h36v3q-5 0 -8 1q-2 3 -3 4q-3 2 -3 9v34q5 8 8 12q2 1 4 1q1 0 5 -2q3 -3 5 -3q3 0 5 1q3 3 3 7q0 1 -3 5q-3 3 -7 3q-10 0 -20 -17v17zM723 -41v0
q-10 -8 -17 -8q-4 0 -8 2q-3 4 -3 11q0 5 3 8q3 4 8 8q4 1 17 6v-27zM723 -48v0q0 -5 1 -8q2 -2 7 -2q8 0 16 10v5q-4 -5 -6 -6h-2t-1 1q-2 0 -2 3q-1 2 -1 13v24q0 11 -1 15q-3 4 -8 7q-6 4 -15 4q-13 0 -19 -7q-7 -5 -7 -12v-6q3 -1 5 -1q4 0 5 1q3 3 3 6v6q0 2 3 5
q4 3 8 3q6 0 10 -4t4 -16v-3q-20 -5 -28 -10q-9 -5 -10 -11q-3 -4 -3 -9q0 -9 4 -13q6 -5 13 -5q6 0 8 1q3 1 16 9zM774 56v0h-4l-21 -9l2 -3q2 1 5 1q1 0 4 -1q1 -1 1 -4v-14v-67q0 -7 -1 -8q0 -3 -3 -4q-2 -1 -8 -1v-3h37v3q-5 0 -8 1q-1 1 -2 4q-2 1 -2 8v25l23 -29
q4 -4 4 -5q0 -2 -2 -3q-1 -1 -4 -1v-3h35v3q-6 0 -7 1q-3 1 -7 4q-2 2 -10 13l-19 24l19 17q5 5 9 5q5 3 11 3v2h-31v-2q3 0 4 -2l2 -1v-3q-2 -1 -8 -6l-19 -17v72zM849 -43v0q-4 0 -6 -2q-2 -3 -2 -5q0 -4 2 -7t6 -3t7 3q2 3 2 7q0 2 -2 5q-3 2 -7 2zM895 -2v0l7 7q5 2 9 2
q9 0 14 -9q7 -8 7 -21q0 -14 -7 -24q-5 -6 -13 -6q-5 0 -9 3q-4 1 -8 3v45zM895 3v0v53h-4l-22 -9l1 -3q4 1 7 1q1 0 2 -1q2 -1 2 -4v-14v-75q8 -5 14 -8q5 -3 12 -3q13 0 25 11q13 12 13 31q0 16 -8 27q-9 9 -19 9q-14 0 -23 -15zM981 56v0h-3l-22 -9l1 -3q3 1 5 1t3 -1
t2 -4v-14v-67q0 -7 -1 -8q-1 -3 -2 -4q-2 -1 -7 -1v-3h35v3q-5 0 -7 1q-3 1 -3 4q-1 1 -1 8v97zM1035 13v0q7 0 14 -8q8 -12 8 -30q0 -16 -5 -23q-6 -5 -14 -5q-9 0 -15 10q-6 12 -6 28q0 9 2 16q2 6 6 9q6 3 10 3zM1037 18v0q-9 0 -18 -5q-7 -4 -12 -15q-5 -9 -5 -20
q0 -13 8 -25q9 -13 26 -13q10 0 18 6q8 5 13 15q4 10 4 20q0 13 -8 25q-10 12 -26 12zM1115 14v0q6 0 11 -5q6 -7 6 -20q0 -11 -4 -14q-4 -4 -11 -4q-5 0 -10 4q-5 7 -5 19q0 11 3 16q4 4 10 4zM1100 -57v0q11 -1 29 -3q12 0 16 -1q4 -3 4 -7q0 -5 -7 -10q-8 -5 -21 -5
q-16 0 -23 5q-4 4 -4 8q0 1 1 5t5 8zM1102 -31v0q-8 -6 -11 -10q-1 -4 -1 -7q0 -1 1 -4q1 -2 5 -5q-6 -8 -8 -8q-4 -5 -5 -8q-1 -2 -1 -4q0 -5 6 -9q10 -5 27 -5q19 0 31 10q8 8 8 17q0 7 -4 11t-12 5q-4 0 -21 1h-12q-3 2 -5 3q-1 1 -1 3q0 1 1 4l5 5q7 -1 11 -1q14 0 21 6
q8 8 8 17t-4 16h9h4v0q1 1 1 4l-1 1v0q0 2 -4 2h-16q-6 5 -18 5t-21 -8q-7 -8 -7 -20q0 -5 4 -12q3 -6 10 -9zM1211 18v0h-3l-1 -3q-2 -1 -3 -1t-5 1q-6 3 -11 3q-10 0 -16 -7q-6 -5 -6 -14q0 -7 4 -12q4 -4 16 -10q10 -6 14 -10t4 -9t-4 -6q-3 -4 -8 -4q-8 0 -14 5t-8 17
h-3v-26h3q1 2 2 2q2 0 4 -1q10 -3 16 -3q9 0 17 7q7 5 7 16q0 13 -16 21l-12 5q-8 3 -10 7q-3 3 -3 7t4 7t9 3q7 0 12 -4t8 -16h3v25zM1247 -4v0q6 7 8 9q6 1 9 1q7 0 11 -7q8 -9 8 -24t-7 -24q-5 -5 -12 -5t-11 4q-4 2 -6 6v13v27zM1221 9v0l1 -3q3 1 6 1q2 0 4 -1
q0 -1 1 -3v-9v-68q0 -9 -1 -11v-2q-4 -2 -10 -2h-1v-2h38v2q-6 0 -8 2q-2 0 -2 2q-2 2 -2 10v22q4 -4 7 -4q4 -3 10 -3q14 0 23 11q10 12 10 31q0 16 -8 28q-7 8 -18 8q-7 0 -13 -4q-7 -4 -11 -13v16h-4zM1341 13v0q8 0 14 -8q9 -12 9 -30q0 -16 -5 -23q-5 -5 -13 -5
q-11 0 -17 10q-5 12 -5 28q0 9 2 16q3 6 5 9q6 3 10 3zM1343 18v0q-9 0 -17 -5q-8 -4 -13 -15q-4 -9 -4 -20q0 -13 7 -25q10 -13 27 -13q9 0 17 6q8 5 14 15q5 10 5 20q0 13 -9 25q-10 12 -27 12zM1410 39v0h-2q-3 -8 -6 -11q-4 -5 -7 -10q-6 -4 -8 -5v-3h10v-49q0 -9 1 -11
q3 -4 6 -6q4 -2 6 -2q7 0 12 4t7 11h-2q-2 -4 -5 -5q-2 -1 -5 -1t-5 1q-2 3 -2 11v47h17v5h-17v24zM1448 -43v0q-2 0 -5 -2q-2 -3 -2 -5q0 -4 2 -7q3 -3 5 -3q4 0 7 3q4 3 4 7q0 2 -4 5q-3 2 -7 2zM1536 -29v0h-2q-4 -10 -9 -12q-6 -7 -14 -7q-10 0 -17 11q-6 9 -6 23
q0 12 6 21q6 4 12 4q5 0 9 -1q3 -3 3 -7q1 -5 3 -6q2 -4 5 -4q4 0 7 3q1 1 1 5q0 5 -7 10q-6 7 -17 7q-14 0 -25 -11q-10 -11 -10 -29q0 -17 10 -27q8 -11 20 -11t20 8q9 8 11 23zM1580 13v0q8 0 14 -8q8 -12 8 -30q0 -16 -4 -23q-5 -5 -14 -5t-16 10q-5 12 -5 28q0 9 1 16
q3 6 8 9q4 3 8 3zM1582 18v0q-9 0 -18 -5q-7 -4 -12 -15q-5 -9 -5 -20q0 -13 9 -25q8 -13 26 -13q10 0 19 6q6 5 12 15q5 10 5 20q0 13 -9 25t-27 12zM1649 2v0v16h-3l-23 -9l1 -3q4 1 7 1q1 0 3 -1q1 0 2 -4v-14v-29v-8q-1 -3 -4 -4q-2 -1 -8 -1v-3h37v3q-5 0 -8 1
q-1 1 -2 4q-2 1 -2 8v39q4 4 11 8q4 3 8 3q6 0 10 -6q3 -4 3 -13v-31v-8l-4 -4q-1 -1 -8 -1v-3h36v3q-4 0 -7 1t-3 4q-1 0 -1 8v34v4v1q7 7 9 8q6 3 10 3q6 0 9 -6q2 -4 2 -13v-31v-8q-1 -1 -4 -3q-1 -2 -5 -2h-2v-3h35v3q-5 0 -7 1t-2 4v8v31q0 11 -3 15q-2 6 -8 9
q-4 4 -9 4q-6 0 -12 -4q-6 -3 -14 -12q-2 8 -7 11q-5 5 -10 5q-6 0 -9 -3q-4 -1 -7 -4q-3 -1 -11 -9zM318 -180v0h-1q-2 -3 -3 -4q-2 -2 -3 -2q-2 0 -3 2q-8 4 -17 4q-12 0 -21 -6q-8 -6 -13 -15q-6 -10 -6 -20q0 -17 8 -27q10 -15 29 -15q12 0 20 4q7 6 14 17h-2
q-8 -9 -14 -12q-4 -3 -12 -3q-10 0 -16 4q-8 5 -11 11q-4 9 -4 19q0 13 4 22q5 8 11 12q6 5 13 5q11 0 17 -6q7 -6 10 -17h2zM354 -210v0q6 0 10 -6q6 -7 6 -22q0 -10 -3 -16q-4 -5 -10 -5q-8 0 -11 9q-6 8 -6 20q0 9 3 11q2 5 3 6q3 3 8 3zM355 -207v0q-7 0 -12 -3
q-6 -4 -10 -10q-3 -7 -3 -15q0 -9 6 -18q7 -10 18 -10q9 0 15 4q4 3 8 12q3 6 3 14q0 10 -5 17q-6 9 -20 9zM404 -219v0v12h-3l-15 -6v-3q3 2 5 2l1 -2q2 0 2 -3v-10v-19q0 -6 -2 -9q-1 -2 -4 -2h-2v-3h27v3h-6q-1 2 -3 3v8v28q8 6 14 6q4 0 6 -3q3 -3 3 -10v-21v-6
q-2 -3 -3 -3q-2 -2 -6 -2v0v-3h25v3h-5q-1 2 -3 3v8v22q0 6 -1 10q-2 5 -4 8q-3 1 -8 1q-9 0 -18 -12zM464 -190v0h-3q-2 -6 -3 -8q-2 -4 -6 -7q-3 -3 -6 -5v-3h9v-34q0 -6 1 -9q0 -3 2 -4q3 -2 6 -2q4 0 7 3q5 3 8 9h-3q-2 -3 -3 -4q-2 -2 -5 -2q-1 0 -3 3q-1 2 -1 8v32h12
v5h-12v18zM511 -250v0q-7 -6 -12 -6q-3 0 -6 3t-3 8q0 3 3 6q2 3 8 4q0 2 10 6v-21zM511 -253v0q0 -6 2 -7q1 -3 4 -3q6 0 12 10v3l-4 -4h-2h-1v3v9v18q0 7 -2 10q-1 3 -6 6q-4 1 -12 1q-9 0 -13 -4q-6 -5 -6 -9q0 -1 2 -3q1 -1 2 -1q3 0 5 1q1 2 1 3v3q0 3 2 4q3 3 6 3
q4 0 7 -3t3 -10v-3q-13 -4 -19 -9q-7 -3 -9 -7q-3 -2 -3 -6q0 -6 5 -11q4 -4 10 -4q3 0 6 1q1 2 10 9zM578 -241v0h-1q-3 -6 -6 -9q-5 -3 -11 -3q-7 0 -13 8q-3 6 -3 16q0 9 3 15q4 4 10 4q5 0 6 -3q2 -1 3 -4v-4q2 -2 5 -2t4 2l2 1q0 4 -5 9q-6 4 -13 4q-11 0 -18 -7
t-7 -21q0 -12 7 -21q6 -7 15 -7t13 6q8 6 9 16zM602 -190v0h-3q-2 -6 -3 -8q-3 -4 -6 -7t-6 -5v-3h8v-34q0 -6 1 -9t3 -4q3 -2 6 -2q4 0 9 3q1 3 4 9h-3q-1 -3 -1 -4q-2 -2 -3 -2q-3 0 -5 3q-1 2 -1 8v32h12v5h-12v18zM661 -207v0q-3 0 -4 -1q-2 -2 -2 -5t2 -4q1 -3 4 -3
t5 3q3 1 3 4t-3 5q-2 1 -5 1zM661 -250v0q-3 0 -4 -1q-2 -2 -2 -5t2 -6q1 -1 4 -1t5 1q3 3 3 6t-3 5q-2 1 -5 1zM748 -251v0q-5 -5 -9 -5q-6 0 -12 6q-6 8 -6 18q0 12 6 18q4 4 10 4q3 0 6 -1q2 -2 3 -6q2 -3 2 -6v-28zM748 -256v0v-7h3l16 7l-2 2q-1 -2 -3 -2q-1 0 -1 2
q-2 1 -2 3q-1 3 -1 10v63h-3l-15 -6l2 -3q1 1 3 1q1 0 1 -1q2 0 2 -3v-11v-10q-5 4 -11 4q-12 0 -18 -9q-7 -8 -7 -20t6 -20q6 -7 15 -7q4 0 9 1zM801 -250v0q-7 -6 -13 -6q-2 0 -5 3t-3 8q0 3 3 6q2 3 6 4q2 2 12 6v-21zM801 -253v0q0 -6 2 -7q1 -3 4 -3q5 0 12 10v3
q-3 -3 -5 -4h-1h-3v3v9v18v10q-1 3 -6 6q-4 1 -12 1q-9 0 -13 -4q-6 -5 -6 -9q0 -1 1 -3q2 -1 3 -1q3 0 5 1q1 2 1 3v3q0 3 2 4q3 3 6 3q4 0 7 -3t3 -10v-3q-13 -4 -19 -9q-8 -3 -9 -7q-2 -2 -2 -6q0 -6 3 -11q5 -4 11 -4q3 0 4 1q3 2 12 9zM838 -207v0h-3l-15 -6v-3
q3 2 5 2q1 0 3 -2q1 0 1 -3v-8v-21v-6q0 -3 -1 -3q-3 -2 -8 -2v-3h29v3h-6q-3 2 -3 3q-2 3 -2 8v25q3 4 6 7q2 2 3 2l3 -3q3 -2 5 -2q1 0 3 2q1 1 1 4t-1 5q-3 1 -5 1q-7 0 -15 -12v12zM877 -207v0h-2l-16 -6l2 -3q1 2 3 2q3 0 3 -2q1 0 1 -3q1 -1 1 -8v-21q0 -6 -1 -6
q0 -3 -1 -3q-3 -2 -6 -2v-3h26v3h-6q-1 2 -3 3q-1 3 -1 8v25q3 4 6 7q1 2 3 2q1 0 4 -3q2 -2 5 -2q1 0 3 2q1 1 1 4t-1 5q-2 1 -6 1q-8 0 -15 -12v12zM932 -250v0q-8 -6 -12 -6q-1 0 -4 3t-3 8q0 3 1 6q3 3 6 4q3 2 12 6v-21zM932 -253v0q0 -6 1 -7q3 -3 6 -3q5 0 12 10v3
q-4 -3 -6 -4h-1h-2v3v9v18q0 7 -1 10q-2 3 -5 6q-6 1 -13 1t-13 -4q-6 -5 -6 -9q0 -1 1 -3q2 -1 5 -1t4 1v3v3q0 3 3 4q3 3 5 3q5 0 7 -3q3 -3 3 -10v-3q-13 -4 -19 -9q-6 -3 -9 -7q-2 -2 -2 -6q0 -6 5 -11q3 -4 9 -4q4 0 6 1q1 2 10 9zM969 -190v0h-1q-3 -6 -3 -8
q-2 -4 -6 -7q-3 -3 -6 -5v-3h9v-34v-9q1 -3 3 -4q3 -2 6 -2q4 0 7 3q4 3 7 9h-3q-1 -3 -3 -4q-1 -2 -4 -2q-1 0 -3 3q-3 2 -3 8v32h13v5h-13v18zM1002 -178v0q-3 0 -5 -2q-1 -1 -1 -4t1 -5q2 -1 5 -1t4 1q2 2 2 5t-2 4q-1 2 -4 2zM1006 -207v0h-3l-16 -6v-3q3 2 4 2
q2 0 3 -2q2 0 2 -1v-12v-19v-8q-2 -1 -3 -3h-6v-3h27v3h-5q-1 2 -1 3q-2 2 -2 8v41zM1030 -190v0l2 -2q2 2 5 2q2 0 3 -2q2 0 2 -3v-9v-43v-9q-2 -1 -3 -3h-7v-3h29v3h-7q-2 2 -2 3v9v67h-1zM1092 -223v0q0 9 2 21q1 9 4 13q3 5 8 5q3 0 6 -2q4 -3 6 -10q1 -9 1 -23
q0 -17 -1 -26q-2 -8 -6 -11q-3 -3 -6 -3q-8 0 -9 9q-5 9 -5 27zM1081 -221v0q0 -17 6 -27q8 -15 19 -15q6 0 12 4q6 5 9 15q4 9 4 24q0 19 -9 30q-6 10 -16 10q-6 0 -11 -4q-6 -5 -10 -14q-4 -10 -4 -23zM1196 -208v0q3 0 6 -2q2 -3 2 -7t-3 -13q-2 -6 -6 -12q-4 -5 -9 -8
q-1 -3 -6 -3q-3 0 -4 3q-3 3 -3 6q0 5 4 14q5 10 11 17q4 5 8 5zM1217 -205v0l-10 -2v-6q-2 3 -5 6q-3 2 -6 2q-5 0 -11 -5q-9 -7 -15 -16q-6 -12 -6 -19q0 -6 3 -11q3 -4 7 -4q5 0 11 4q4 3 13 14q-2 -5 -2 -9q0 -5 3 -6q2 -2 6 -2q8 0 15 5q8 4 12 15q5 10 5 20
q0 12 -5 21q-4 9 -15 15q-10 5 -21 5q-14 0 -28 -8q-12 -7 -21 -21q-6 -13 -6 -28t6 -27q8 -12 18 -17q14 -8 26 -8q17 0 32 11q14 10 20 25h-5q-7 -15 -19 -24t-27 -9q-12 0 -24 6q-9 6 -16 16q-6 12 -6 26q0 15 7 26q8 14 18 21q12 8 25 8q11 0 20 -5q9 -4 13 -12
q5 -9 5 -19t-5 -21q-3 -7 -10 -12q-6 -6 -11 -6q-1 0 -1 2q-2 1 -2 4q0 2 2 6q0 2 3 15zM1274 -210v0q3 0 6 -3q4 -6 4 -14t-3 -11t-7 -3q-5 0 -8 3q-4 6 -4 15q0 7 4 10q3 3 8 3zM1262 -262v0q7 0 19 -1q11 0 14 -2q1 0 1 -3q0 -4 -3 -8q-6 -3 -16 -3q-11 0 -18 3
q-3 2 -3 5q0 2 1 5q2 1 5 4zM1262 -242v0q-6 -3 -8 -6q-1 -3 -1 -6q0 -2 1 -3q2 -2 5 -3l-6 -6q-3 -5 -3 -6q-1 -2 -1 -3q0 -3 2 -7q9 -5 21 -5q14 0 24 9q5 6 5 13q0 3 -3 6q-2 5 -8 5q-4 1 -16 1h-8q-3 0 -4 2q-2 1 -2 3l2 3l3 3q4 -2 9 -2q9 0 15 5q6 6 6 13q0 6 -3 10h6
h3v0q1 2 1 3q0 2 -1 2v1h-3h-11q-6 3 -13 3q-9 0 -17 -6q-6 -6 -6 -11q0 -6 3 -11q3 -4 8 -7zM1323 -219v0v12h-3l-15 -6l1 -3q2 2 3 2q2 0 3 -2q2 0 2 -3v-10v-19v-8q-2 -1 -3 -3h-5v-3h26v3h-6q-2 2 -2 3q-1 2 -1 8v28q3 3 7 4q5 3 8 3t6 -4q1 -3 1 -9v-22v-6q0 -3 -1 -5
h-6v-3h25v3h-4q-2 2 -2 3q-1 2 -1 8v25v3v0q4 3 7 4q3 2 6 2q6 0 7 -3q2 -3 2 -9v-22v-6q0 -3 -2 -3q-3 -2 -6 -2h-1v-3h27v3h-6q-2 2 -2 3q-1 2 -1 8v22q0 6 -2 10q-1 5 -3 8q-4 1 -9 1q-4 0 -9 -1q-3 -3 -8 -11q-2 6 -5 9q-4 3 -10 3h-5q-3 -1 -6 -4q-1 -2 -7 -8z
M1430 -250v0q-8 -6 -12 -6q-3 0 -6 3t-3 8q0 3 3 6q2 3 7 4q2 2 11 6v-21zM1430 -253v0q0 -6 1 -7q2 -3 5 -3q6 0 13 10v3l-4 -4h-3h-2v3q-1 1 -1 9v18v10q-2 3 -6 6q-5 1 -11 1q-10 0 -14 -4q-5 -5 -5 -9q0 -1 2 -3l1 -1q3 0 5 1q1 2 1 3v3q0 3 2 4q2 3 7 3q4 0 7 -3
q2 -3 2 -10v-3q-14 -4 -19 -9q-6 -3 -8 -7q-3 -2 -3 -6q0 -6 5 -11q3 -4 7 -4t7 1q3 2 11 9zM1467 -178v0q-3 0 -4 -2q-3 -1 -3 -4t3 -5q1 -1 4 -1q2 0 4 1v5v4q-2 2 -4 2zM1471 -207v0h-2l-17 -6v-3q3 2 5 2q1 0 3 -2l1 -1v-12v-19v-8l-3 -3h-6v-3h27v3h-6q-2 2 -2 3v8v41z
M1504 -178v0h-3l-16 -6l1 -3q3 1 5 1q1 0 1 -1q2 0 2 -3v-11v-47v-8q0 -1 -2 -3h-6v-3h27v3h-6q-1 2 -3 3v8v70zM1529 -250v0q-3 0 -4 -1q-1 -2 -1 -5t1 -6q1 -1 4 -1t5 1q3 3 3 6t-3 5q-2 1 -5 1zM1593 -241v0h-1q-5 -6 -8 -9t-8 -3q-9 0 -14 8q-4 6 -4 16q0 9 4 15
q3 4 9 4q5 0 8 -3q1 -1 1 -4t1 -4q2 -2 5 -2t4 2l2 1q0 4 -6 9q-5 4 -12 4q-12 0 -18 -7q-7 -7 -7 -21q0 -12 7 -21q5 -7 15 -7q8 0 13 6q6 6 9 16zM1626 -210v0q5 0 9 -6q6 -7 6 -22q0 -10 -3 -16q-4 -5 -10 -5t-12 9q-5 8 -5 20q0 9 3 11q2 5 5 6q3 3 7 3zM1626 -207v0
q-6 0 -12 -3q-6 -4 -10 -10q-3 -7 -3 -15q0 -9 6 -18q7 -10 19 -10q8 0 13 4q6 3 9 12q3 6 3 14q0 10 -4 17q-9 9 -21 9zM1675 -219v0v12h-3l-15 -6v-3q3 2 5 2q1 0 3 -2q1 0 1 -3v-10v-19v-8l-3 -3h-6v-3h27v3h-6q-1 2 -1 3q-2 2 -2 8v28q3 3 8 4q4 3 7 3t6 -4q1 -3 1 -9
v-22v-6q0 -3 -1 -5h-6v-3h25v3h-4q-2 2 -2 3q-1 2 -1 8v25v3v0q4 3 7 4q3 2 6 2q6 0 8 -3q1 -3 1 -9v-22v-6q0 -3 -1 -3q-3 -2 -6 -2h-2v-3h27v3h-6q-1 2 -1 3q-2 2 -2 8v22q0 6 -1 10q0 5 -3 8q-5 1 -9 1q-5 0 -9 -1q-3 -3 -9 -11q-2 6 -6 9q-3 3 -9 3h-4q-3 -1 -6 -4z
M1088 1396v0q0 45 -16 85t-36.5 70t-36.5 47l-16 17l-16 -17t-36.5 -47t-36.5 -70t-16 -85t16 -85t36.5 -70t36.5 -47l16 -17l16 17t36.5 47t36.5 70t16 85zM1088 605v0q0 46 -16 85.5t-36.5 69.5t-36.5 47l-16 17l-16 -17t-36.5 -47t-36.5 -69.5t-16 -85.5q0 -45 16 -84.5
t36.5 -69.5t36.5 -47l16 -17l16 17t36.5 47t36.5 69.5t16 84.5zM778 1355v0q-33 31 -72 48t-74.5 24t-59 7.5l-23.5 0.5l0.5 -23.5t7.5 -59t24 -74.5t48 -72q33 -32 72 -48.5t75 -23.5t59 -7.5l23 -0.5l-0.5 23t-7.5 59t-23.5 75t-48.5 72zM1337 795v0q-33 32 -72 49
t-74.5 23.5t-59 7.5l-23.5 1l1 -23.5t7.5 -59t23.5 -74.5t49 -72q32 -32 71 -49t75 -23.5t59.5 -7.5l23.5 -1l-1 23.5t-7.5 59.5t-23.5 75t-49 71zM588 1106v0q-45 0 -85 -16t-70 -36.5t-47 -36.5l-17 -16l17 -16t47 -36.5t70 -36.5t85 -16t85 16t70 36.5t47 36.5l17 16
l-17 16t-47 36.5t-70 36.5t-85 16zM1379 1106v0q-46 0 -85.5 -16t-69.5 -36.5t-47 -36.5l-17 -16l17 -16t47 -36.5t69.5 -36.5t85.5 -16q45 0 84.5 16t69.5 36.5t47 36.5l17 16l-17 16t-47 36.5t-69.5 36.5t-84.5 16zM629 795v0q-31 -32 -48 -71t-24 -75t-7.5 -59.5
l-0.5 -23.5l23.5 1t59 7.5t74.5 23.5t72 49q32 33 48.5 72t23.5 74.5t7.5 59l0.5 23.5l-23 -1t-59 -7.5t-75 -23.5t-72 -49zM1189 1355v0q-32 -33 -49 -72t-23.5 -75t-7.5 -59l-1 -23l23.5 0.5t59 7.5t74.5 23.5t72 48.5q32 33 49 72t23.5 74.5t7.5 59l1 23.5l-23.5 -0.5
t-59.5 -7.5t-75 -24t-71 -48zM1124 1001v0q0 58 -41 99t-100 41q-58 0 -99.5 -41t-41.5 -99q0 -59 41.5 -100t99.5 -41q59 0 100 41t41 100zM533 233v0h-29q0 6 4 11q4 4 11 4q6 0 10 -4t4 -11zM556 208v0l-23 4q-4 -12 -13 -12q-7 0 -11 4q-5 5 -5 12h52v4q0 12 -2 20
q-3 9 -8 15t-12 9q-7 4 -16 4t-16 -4q-7 -3 -12 -9q-5 -5 -7 -14q-3 -8 -3 -17q0 -10 3 -18q2 -8 7 -14t13 -9q7 -3 17 -3q27 0 36 28zM573 182v0h23v114h-23v-114zM641 296v0h-23v-114h23v42q0 7 1 11t3 7t5 4q3 2 7 2q5 0 8 -3q4 -2 4 -7v-3v-2v-3v-2v-2v-44h23v49
q0 19 -5 26v0q-7 11 -23 11q-13 0 -23 -11v39zM759 220v0v-2q0 -7 -1 -10q-1 -2 -3 -3q-1 -2 -3 -3t-5 -2q-2 -1 -4 -1q-3 0 -4 1l-4 2q-1 1 -2 3q-1 1 -1 3q0 4 4 6q1 1 4 2q2 1 7 2v0q4 1 7 1q3 1 5 1zM711 242v0l21 -4q3 10 13 10q8 0 11 -2q3 -3 3 -8v0q-3 -1 -8 -3
q-5 -1 -12 -2q-8 -2 -14 -4q-5 -2 -9 -5t-5 -8q-2 -4 -2 -10t2 -11q2 -4 6 -8q3 -3 8 -5t11 -2q7 0 13 3q6 2 12 8q0 -2 1 -5l2 -4h23q-6 13 -6 28v13v12q0 7 -1 12q0 5 -2 8q-7 13 -31 13q-8 0 -14 -2q-6 -1 -10 -5q-4 -3 -7 -8t-5 -11zM824 182v0v27q0 10 1 16q0 7 1 10v0
q2 5 4 8q3 2 7 2q5 0 11 -4l7 22q-8 5 -15 5q-3 0 -5 -1q-2 0 -4 -2q-2 -1 -4 -3t-4 -6v10h-22v-84h23zM886 182v0v27v16q1 7 2 10v0q1 5 4 8q2 2 7 2q4 0 10 -4l8 22q-8 5 -15 5q-3 0 -5 -1q-2 0 -4 -2q-2 -1 -4 -3t-5 -6v10h-21v-84h23zM969 220v0v-2v-10q-1 -2 -3 -3
q-1 -2 -3 -3t-5 -2q-2 -1 -4 -1q-3 0 -5 1q-1 1 -3 2q-1 1 -2 3q-1 1 -1 3q0 4 4 6q1 1 3 2q3 1 8 2v0q4 1 7 1q3 1 4 1zM922 242v0l20 -4q4 10 14 10q8 0 11 -2q2 -3 2 -8v0q-2 -1 -7 -3l-12 -2q-8 -2 -14 -4q-5 -2 -9 -5t-5 -8q-2 -4 -2 -10t2 -11q2 -4 6 -8q3 -3 8 -5
t11 -2q7 0 13 3q6 2 12 8q0 -2 1 -5q1 -2 1 -4h24q-6 13 -6 28v13v12q0 7 -1 12q0 5 -2 8q-7 13 -31 13q-8 0 -14 -2q-6 -1 -10 -5q-5 -3 -8 -8t-4 -11zM1013 182v0h23v27l4 4q2 3 4 5l20 -36h26q-4 6 -7 13q-4 7 -8 13l-8 14q-4 6 -7 13l29 31h-30q-6 -7 -12 -13
q-5 -7 -11 -14v57h-23v-114zM1140 266v0v-20h12v-64h23v64h16v20h-16v4q0 4 2 6t6 2h5q2 0 5 -1l4 18q-10 3 -19 3q-5 0 -9 -1q-3 0 -6 -2t-5 -4t-4 -5q-1 -2 -1 -6q-1 -4 -1 -10v-4h-12zM1221 224v0q0 5 2 9q1 4 3 7q3 3 6 5q4 2 8 2t8 -2q3 -2 5 -5q3 -3 4 -7t1 -9t-1 -9
t-4 -7q-2 -3 -5 -5q-4 -2 -8 -2t-8 2q-3 2 -6 5q-2 3 -3 7q-2 4 -2 9zM1198 225v0q0 -14 5 -24q6 -10 16 -15q5 -3 10 -4q5 -2 11 -2q9 0 17 4q8 3 13 9q6 6 9 14t3 17q0 10 -3 18t-9 13q-5 6 -13 9q-8 4 -17 4t-16 -3q-8 -3 -14 -9q-5 -5 -9 -13q-3 -8 -3 -18zM1374 182v0
v52q0 17 -6 24q-7 10 -22 10q-8 0 -14 -3t-11 -10v11h-22v-84h23v38q0 13 2 18q3 10 15 10q10 0 11 -11q0 -2 1 -4v-8v-43h23zM1434 266v0h-15v29l-23 -14v-15h-9v-21h9v-33v-9t1 -6v0q1 -9 6 -13t15 -4q9 0 18 4l-2 20q-7 -2 -10 -2q-2 0 -3 1q-2 1 -2 5v37h15v21z
M1464 212v0l-24 -3q8 -29 40 -29q8 0 15 2t12 6t7 9q3 6 3 12t-1 10q-2 4 -5 7q-4 3 -10 6q-6 2 -14 4q-7 1 -12 3q-4 1 -6 2q-2 0 -3 1t-1 2q0 5 14 5q12 0 14 -10l22 4q-2 6 -5 11t-7 8q-5 3 -11 4q-6 2 -14 2t-14 -2t-11 -5q-4 -4 -7 -9q-2 -5 -2 -11t2 -11q3 -5 8 -8
q3 -3 12 -5q8 -3 20 -6q8 -2 8 -5q0 -6 -14 -6t-16 12z" />
    <glyph glyph-name="uniF002" unicode="&#xfb02;" 
d="M261 -8v0q0 10 5 15q6 4 12 4q5 0 9 -1q4 -3 6 -8q2 -3 2 -10h-34zM261 -11v0h49q0 13 -7 21q-8 8 -20 8q-15 0 -25 -11q-9 -10 -9 -29q0 -17 9 -27q10 -11 22 -11q13 0 20 10q9 9 10 19l-2 2q-4 -10 -9 -14q-4 -4 -12 -4q-11 0 -19 10q-9 9 -7 26zM345 56v0h-3l-22 -9
l1 -3q4 1 5 1q3 0 4 -1q2 -1 2 -4q1 -2 1 -14v-67q0 -7 -1 -8q-2 -3 -3 -4q-3 -1 -8 -1v-3h35v3q-5 0 -6 1q-3 1 -4 4q-1 1 -1 8v97zM367 -15v0v-12h41v12h-41zM441 56v0h-4l-23 -9l2 -3q4 1 6 1t3 -1t2 -4v-14v-67v-8q-1 -3 -2 -3q-4 -2 -9 -2v-3h36v3q-5 0 -7 1q-3 1 -3 4
q-1 0 -1 8v38q6 8 10 9q4 3 8 3t7 -3q2 -1 3 -5q2 -4 2 -16v-26v-8q-2 -1 -3 -3q-2 -2 -8 -2h-1v-3h35v3q-3 0 -6 1q-1 1 -3 4q-1 1 -1 8v26q0 13 -1 18q-3 7 -8 11q-4 4 -9 4q-6 0 -12 -4q-4 -3 -13 -12v54zM542 -41v0q-11 -8 -16 -8q-4 0 -8 2q-4 4 -4 11q0 5 3 8
q4 4 10 8q3 1 15 6v-27zM542 -48v0q0 -5 2 -8q3 -2 6 -2q9 0 18 10v5q-5 -5 -7 -6h-2t-3 1q-1 0 -1 3v13v24q0 11 -1 15q-3 4 -7 7q-7 4 -17 4q-12 0 -20 -7q-5 -5 -5 -12q0 -3 1 -6q3 -1 4 -1q3 0 5 1q2 3 2 6v6q0 2 4 5q2 3 8 3t9 -4q4 -4 4 -16v-3q-19 -5 -28 -10
q-6 -5 -10 -11q-3 -4 -3 -9q0 -9 5 -13q4 -5 12 -5q5 0 11 1q1 1 13 9zM594 18v0h-4l-22 -9l1 -3q3 1 6 1q2 0 4 -1q1 -1 1 -4q1 -3 1 -14v-29v-8q-1 -1 -4 -3q-2 -2 -8 -2v-3h38v3q-5 0 -7 1l-4 4q-2 2 -2 9v34q4 8 8 12q2 1 3 1t4 -2q4 -3 6 -3q4 0 6 1q2 3 2 7q0 1 -2 5
q-4 3 -8 3q-9 0 -19 -17v17zM647 18v0h-1l-23 -9l2 -3q2 1 3 1q3 0 4 -1q2 -1 2 -4q1 -3 1 -14v-29v-8q-1 -1 -4 -3t-6 -2v-3h36v3q-5 0 -8 1q-2 3 -3 4q-3 2 -3 9v34q5 8 8 12q2 1 4 1q1 0 5 -2q3 -3 5 -3q3 0 5 1q3 3 3 7q0 1 -3 5q-3 3 -7 3q-10 0 -20 -17v17zM723 -41v0
q-10 -8 -17 -8q-4 0 -8 2q-3 4 -3 11q0 5 3 8q3 4 8 8q4 1 17 6v-27zM723 -48v0q0 -5 1 -8q2 -2 7 -2q8 0 16 10v5q-4 -5 -6 -6h-2t-1 1q-2 0 -2 3q-1 2 -1 13v24q0 11 -1 15q-3 4 -8 7q-6 4 -15 4q-13 0 -19 -7q-7 -5 -7 -12v-6q3 -1 5 -1q4 0 5 1q3 3 3 6v6q0 2 3 5
q4 3 8 3q6 0 10 -4t4 -16v-3q-20 -5 -28 -10q-9 -5 -10 -11q-3 -4 -3 -9q0 -9 4 -13q6 -5 13 -5q6 0 8 1q3 1 16 9zM774 56v0h-4l-21 -9l2 -3q2 1 5 1q1 0 4 -1q1 -1 1 -4v-14v-67q0 -7 -1 -8q0 -3 -3 -4q-2 -1 -8 -1v-3h37v3q-5 0 -8 1q-1 1 -2 4q-2 1 -2 8v25l23 -29
q4 -4 4 -5q0 -2 -2 -3q-1 -1 -4 -1v-3h35v3q-6 0 -7 1q-3 1 -7 4q-2 2 -10 13l-19 24l19 17q5 5 9 5q5 3 11 3v2h-31v-2q3 0 4 -2l2 -1v-3q-2 -1 -8 -6l-19 -17v72zM849 -43v0q-4 0 -6 -2q-2 -3 -2 -5q0 -4 2 -7t6 -3t7 3q2 3 2 7q0 2 -2 5q-3 2 -7 2zM895 -2v0l7 7q5 2 9 2
q9 0 14 -9q7 -8 7 -21q0 -14 -7 -24q-5 -6 -13 -6q-5 0 -9 3q-4 1 -8 3v45zM895 3v0v53h-4l-22 -9l1 -3q4 1 7 1q1 0 2 -1q2 -1 2 -4v-14v-75q8 -5 14 -8q5 -3 12 -3q13 0 25 11q13 12 13 31q0 16 -8 27q-9 9 -19 9q-14 0 -23 -15zM981 56v0h-3l-22 -9l1 -3q3 1 5 1t3 -1
t2 -4v-14v-67q0 -7 -1 -8q-1 -3 -2 -4q-2 -1 -7 -1v-3h35v3q-5 0 -7 1q-3 1 -3 4q-1 1 -1 8v97zM1035 13v0q7 0 14 -8q8 -12 8 -30q0 -16 -5 -23q-6 -5 -14 -5q-9 0 -15 10q-6 12 -6 28q0 9 2 16q2 6 6 9q6 3 10 3zM1037 18v0q-9 0 -18 -5q-7 -4 -12 -15q-5 -9 -5 -20
q0 -13 8 -25q9 -13 26 -13q10 0 18 6q8 5 13 15q4 10 4 20q0 13 -8 25q-10 12 -26 12zM1115 14v0q6 0 11 -5q6 -7 6 -20q0 -11 -4 -14q-4 -4 -11 -4q-5 0 -10 4q-5 7 -5 19q0 11 3 16q4 4 10 4zM1100 -57v0q11 -1 29 -3q12 0 16 -1q4 -3 4 -7q0 -5 -7 -10q-8 -5 -21 -5
q-16 0 -23 5q-4 4 -4 8q0 1 1 5t5 8zM1102 -31v0q-8 -6 -11 -10q-1 -4 -1 -7q0 -1 1 -4q1 -2 5 -5q-6 -8 -8 -8q-4 -5 -5 -8q-1 -2 -1 -4q0 -5 6 -9q10 -5 27 -5q19 0 31 10q8 8 8 17q0 7 -4 11t-12 5q-4 0 -21 1h-12q-3 2 -5 3q-1 1 -1 3q0 1 1 4l5 5q7 -1 11 -1q14 0 21 6
q8 8 8 17t-4 16h9h4v0q1 1 1 4l-1 1v0q0 2 -4 2h-16q-6 5 -18 5t-21 -8q-7 -8 -7 -20q0 -5 4 -12q3 -6 10 -9zM1211 18v0h-3l-1 -3q-2 -1 -3 -1t-5 1q-6 3 -11 3q-10 0 -16 -7q-6 -5 -6 -14q0 -7 4 -12q4 -4 16 -10q10 -6 14 -10t4 -9t-4 -6q-3 -4 -8 -4q-8 0 -14 5t-8 17
h-3v-26h3q1 2 2 2q2 0 4 -1q10 -3 16 -3q9 0 17 7q7 5 7 16q0 13 -16 21l-12 5q-8 3 -10 7q-3 3 -3 7t4 7t9 3q7 0 12 -4t8 -16h3v25zM1247 -4v0q6 7 8 9q6 1 9 1q7 0 11 -7q8 -9 8 -24t-7 -24q-5 -5 -12 -5t-11 4q-4 2 -6 6v13v27zM1221 9v0l1 -3q3 1 6 1q2 0 4 -1
q0 -1 1 -3v-9v-68q0 -9 -1 -11v-2q-4 -2 -10 -2h-1v-2h38v2q-6 0 -8 2q-2 0 -2 2q-2 2 -2 10v22q4 -4 7 -4q4 -3 10 -3q14 0 23 11q10 12 10 31q0 16 -8 28q-7 8 -18 8q-7 0 -13 -4q-7 -4 -11 -13v16h-4zM1341 13v0q8 0 14 -8q9 -12 9 -30q0 -16 -5 -23q-5 -5 -13 -5
q-11 0 -17 10q-5 12 -5 28q0 9 2 16q3 6 5 9q6 3 10 3zM1343 18v0q-9 0 -17 -5q-8 -4 -13 -15q-4 -9 -4 -20q0 -13 7 -25q10 -13 27 -13q9 0 17 6q8 5 14 15q5 10 5 20q0 13 -9 25q-10 12 -27 12zM1410 39v0h-2q-3 -8 -6 -11q-4 -5 -7 -10q-6 -4 -8 -5v-3h10v-49q0 -9 1 -11
q3 -4 6 -6q4 -2 6 -2q7 0 12 4t7 11h-2q-2 -4 -5 -5q-2 -1 -5 -1t-5 1q-2 3 -2 11v47h17v5h-17v24zM1448 -43v0q-2 0 -5 -2q-2 -3 -2 -5q0 -4 2 -7q3 -3 5 -3q4 0 7 3q4 3 4 7q0 2 -4 5q-3 2 -7 2zM1536 -29v0h-2q-4 -10 -9 -12q-6 -7 -14 -7q-10 0 -17 11q-6 9 -6 23
q0 12 6 21q6 4 12 4q5 0 9 -1q3 -3 3 -7q1 -5 3 -6q2 -4 5 -4q4 0 7 3q1 1 1 5q0 5 -7 10q-6 7 -17 7q-14 0 -25 -11q-10 -11 -10 -29q0 -17 10 -27q8 -11 20 -11t20 8q9 8 11 23zM1580 13v0q8 0 14 -8q8 -12 8 -30q0 -16 -4 -23q-5 -5 -14 -5t-16 10q-5 12 -5 28q0 9 1 16
q3 6 8 9q4 3 8 3zM1582 18v0q-9 0 -18 -5q-7 -4 -12 -15q-5 -9 -5 -20q0 -13 9 -25q8 -13 26 -13q10 0 19 6q6 5 12 15q5 10 5 20q0 13 -9 25t-27 12zM1649 2v0v16h-3l-23 -9l1 -3q4 1 7 1q1 0 3 -1q1 0 2 -4v-14v-29v-8q-1 -3 -4 -4q-2 -1 -8 -1v-3h37v3q-5 0 -8 1
q-1 1 -2 4q-2 1 -2 8v39q4 4 11 8q4 3 8 3q6 0 10 -6q3 -4 3 -13v-31v-8l-4 -4q-1 -1 -8 -1v-3h36v3q-4 0 -7 1t-3 4q-1 0 -1 8v34v4v1q7 7 9 8q6 3 10 3q6 0 9 -6q2 -4 2 -13v-31v-8q-1 -1 -4 -3q-1 -2 -5 -2h-2v-3h35v3q-5 0 -7 1t-2 4v8v31q0 11 -3 15q-2 6 -8 9
q-4 4 -9 4q-6 0 -12 -4q-6 -3 -14 -12q-2 8 -7 11q-5 5 -10 5q-6 0 -9 -3q-4 -1 -7 -4q-3 -1 -11 -9zM318 -180v0h-1q-2 -3 -3 -4q-2 -2 -3 -2q-2 0 -3 2q-8 4 -17 4q-12 0 -21 -6q-8 -6 -13 -15q-6 -10 -6 -20q0 -17 8 -27q10 -15 29 -15q12 0 20 4q7 6 14 17h-2
q-8 -9 -14 -12q-4 -3 -12 -3q-10 0 -16 4q-8 5 -11 11q-4 9 -4 19q0 13 4 22q5 8 11 12q6 5 13 5q11 0 17 -6q7 -6 10 -17h2zM354 -210v0q6 0 10 -6q6 -7 6 -22q0 -10 -3 -16q-4 -5 -10 -5q-8 0 -11 9q-6 8 -6 20q0 9 3 11q2 5 3 6q3 3 8 3zM355 -207v0q-7 0 -12 -3
q-6 -4 -10 -10q-3 -7 -3 -15q0 -9 6 -18q7 -10 18 -10q9 0 15 4q4 3 8 12q3 6 3 14q0 10 -5 17q-6 9 -20 9zM404 -219v0v12h-3l-15 -6v-3q3 2 5 2l1 -2q2 0 2 -3v-10v-19q0 -6 -2 -9q-1 -2 -4 -2h-2v-3h27v3h-6q-1 2 -3 3v8v28q8 6 14 6q4 0 6 -3q3 -3 3 -10v-21v-6
q-2 -3 -3 -3q-2 -2 -6 -2v0v-3h25v3h-5q-1 2 -3 3v8v22q0 6 -1 10q-2 5 -4 8q-3 1 -8 1q-9 0 -18 -12zM464 -190v0h-3q-2 -6 -3 -8q-2 -4 -6 -7q-3 -3 -6 -5v-3h9v-34q0 -6 1 -9q0 -3 2 -4q3 -2 6 -2q4 0 7 3q5 3 8 9h-3q-2 -3 -3 -4q-2 -2 -5 -2q-1 0 -3 3q-1 2 -1 8v32h12
v5h-12v18zM511 -250v0q-7 -6 -12 -6q-3 0 -6 3t-3 8q0 3 3 6q2 3 8 4q0 2 10 6v-21zM511 -253v0q0 -6 2 -7q1 -3 4 -3q6 0 12 10v3l-4 -4h-2h-1v3v9v18q0 7 -2 10q-1 3 -6 6q-4 1 -12 1q-9 0 -13 -4q-6 -5 -6 -9q0 -1 2 -3q1 -1 2 -1q3 0 5 1q1 2 1 3v3q0 3 2 4q3 3 6 3
q4 0 7 -3t3 -10v-3q-13 -4 -19 -9q-7 -3 -9 -7q-3 -2 -3 -6q0 -6 5 -11q4 -4 10 -4q3 0 6 1q1 2 10 9zM578 -241v0h-1q-3 -6 -6 -9q-5 -3 -11 -3q-7 0 -13 8q-3 6 -3 16q0 9 3 15q4 4 10 4q5 0 6 -3q2 -1 3 -4v-4q2 -2 5 -2t4 2l2 1q0 4 -5 9q-6 4 -13 4q-11 0 -18 -7
t-7 -21q0 -12 7 -21q6 -7 15 -7t13 6q8 6 9 16zM602 -190v0h-3q-2 -6 -3 -8q-3 -4 -6 -7t-6 -5v-3h8v-34q0 -6 1 -9t3 -4q3 -2 6 -2q4 0 9 3q1 3 4 9h-3q-1 -3 -1 -4q-2 -2 -3 -2q-3 0 -5 3q-1 2 -1 8v32h12v5h-12v18zM661 -207v0q-3 0 -4 -1q-2 -2 -2 -5t2 -4q1 -3 4 -3
t5 3q3 1 3 4t-3 5q-2 1 -5 1zM661 -250v0q-3 0 -4 -1q-2 -2 -2 -5t2 -6q1 -1 4 -1t5 1q3 3 3 6t-3 5q-2 1 -5 1zM748 -251v0q-5 -5 -9 -5q-6 0 -12 6q-6 8 -6 18q0 12 6 18q4 4 10 4q3 0 6 -1q2 -2 3 -6q2 -3 2 -6v-28zM748 -256v0v-7h3l16 7l-2 2q-1 -2 -3 -2q-1 0 -1 2
q-2 1 -2 3q-1 3 -1 10v63h-3l-15 -6l2 -3q1 1 3 1q1 0 1 -1q2 0 2 -3v-11v-10q-5 4 -11 4q-12 0 -18 -9q-7 -8 -7 -20t6 -20q6 -7 15 -7q4 0 9 1zM801 -250v0q-7 -6 -13 -6q-2 0 -5 3t-3 8q0 3 3 6q2 3 6 4q2 2 12 6v-21zM801 -253v0q0 -6 2 -7q1 -3 4 -3q5 0 12 10v3
q-3 -3 -5 -4h-1h-3v3v9v18v10q-1 3 -6 6q-4 1 -12 1q-9 0 -13 -4q-6 -5 -6 -9q0 -1 1 -3q2 -1 3 -1q3 0 5 1q1 2 1 3v3q0 3 2 4q3 3 6 3q4 0 7 -3t3 -10v-3q-13 -4 -19 -9q-8 -3 -9 -7q-2 -2 -2 -6q0 -6 3 -11q5 -4 11 -4q3 0 4 1q3 2 12 9zM838 -207v0h-3l-15 -6v-3
q3 2 5 2q1 0 3 -2q1 0 1 -3v-8v-21v-6q0 -3 -1 -3q-3 -2 -8 -2v-3h29v3h-6q-3 2 -3 3q-2 3 -2 8v25q3 4 6 7q2 2 3 2l3 -3q3 -2 5 -2q1 0 3 2q1 1 1 4t-1 5q-3 1 -5 1q-7 0 -15 -12v12zM877 -207v0h-2l-16 -6l2 -3q1 2 3 2q3 0 3 -2q1 0 1 -3q1 -1 1 -8v-21q0 -6 -1 -6
q0 -3 -1 -3q-3 -2 -6 -2v-3h26v3h-6q-1 2 -3 3q-1 3 -1 8v25q3 4 6 7q1 2 3 2q1 0 4 -3q2 -2 5 -2q1 0 3 2q1 1 1 4t-1 5q-2 1 -6 1q-8 0 -15 -12v12zM932 -250v0q-8 -6 -12 -6q-1 0 -4 3t-3 8q0 3 1 6q3 3 6 4q3 2 12 6v-21zM932 -253v0q0 -6 1 -7q3 -3 6 -3q5 0 12 10v3
q-4 -3 -6 -4h-1h-2v3v9v18q0 7 -1 10q-2 3 -5 6q-6 1 -13 1t-13 -4q-6 -5 -6 -9q0 -1 1 -3q2 -1 5 -1t4 1v3v3q0 3 3 4q3 3 5 3q5 0 7 -3q3 -3 3 -10v-3q-13 -4 -19 -9q-6 -3 -9 -7q-2 -2 -2 -6q0 -6 5 -11q3 -4 9 -4q4 0 6 1q1 2 10 9zM969 -190v0h-1q-3 -6 -3 -8
q-2 -4 -6 -7q-3 -3 -6 -5v-3h9v-34v-9q1 -3 3 -4q3 -2 6 -2q4 0 7 3q4 3 7 9h-3q-1 -3 -3 -4q-1 -2 -4 -2q-1 0 -3 3q-3 2 -3 8v32h13v5h-13v18zM1002 -178v0q-3 0 -5 -2q-1 -1 -1 -4t1 -5q2 -1 5 -1t4 1q2 2 2 5t-2 4q-1 2 -4 2zM1006 -207v0h-3l-16 -6v-3q3 2 4 2
q2 0 3 -2q2 0 2 -1v-12v-19v-8q-2 -1 -3 -3h-6v-3h27v3h-5q-1 2 -1 3q-2 2 -2 8v41zM1030 -190v0l2 -2q2 2 5 2q2 0 3 -2q2 0 2 -3v-9v-43v-9q-2 -1 -3 -3h-7v-3h29v3h-7q-2 2 -2 3v9v67h-1zM1092 -223v0q0 9 2 21q1 9 4 13q3 5 8 5q3 0 6 -2q4 -3 6 -10q1 -9 1 -23
q0 -17 -1 -26q-2 -8 -6 -11q-3 -3 -6 -3q-8 0 -9 9q-5 9 -5 27zM1081 -221v0q0 -17 6 -27q8 -15 19 -15q6 0 12 4q6 5 9 15q4 9 4 24q0 19 -9 30q-6 10 -16 10q-6 0 -11 -4q-6 -5 -10 -14q-4 -10 -4 -23zM1196 -208v0q3 0 6 -2q2 -3 2 -7t-3 -13q-2 -6 -6 -12q-4 -5 -9 -8
q-1 -3 -6 -3q-3 0 -4 3q-3 3 -3 6q0 5 4 14q5 10 11 17q4 5 8 5zM1217 -205v0l-10 -2v-6q-2 3 -5 6q-3 2 -6 2q-5 0 -11 -5q-9 -7 -15 -16q-6 -12 -6 -19q0 -6 3 -11q3 -4 7 -4q5 0 11 4q4 3 13 14q-2 -5 -2 -9q0 -5 3 -6q2 -2 6 -2q8 0 15 5q8 4 12 15q5 10 5 20
q0 12 -5 21q-4 9 -15 15q-10 5 -21 5q-14 0 -28 -8q-12 -7 -21 -21q-6 -13 -6 -28t6 -27q8 -12 18 -17q14 -8 26 -8q17 0 32 11q14 10 20 25h-5q-7 -15 -19 -24t-27 -9q-12 0 -24 6q-9 6 -16 16q-6 12 -6 26q0 15 7 26q8 14 18 21q12 8 25 8q11 0 20 -5q9 -4 13 -12
q5 -9 5 -19t-5 -21q-3 -7 -10 -12q-6 -6 -11 -6q-1 0 -1 2q-2 1 -2 4q0 2 2 6q0 2 3 15zM1274 -210v0q3 0 6 -3q4 -6 4 -14t-3 -11t-7 -3q-5 0 -8 3q-4 6 -4 15q0 7 4 10q3 3 8 3zM1262 -262v0q7 0 19 -1q11 0 14 -2q1 0 1 -3q0 -4 -3 -8q-6 -3 -16 -3q-11 0 -18 3
q-3 2 -3 5q0 2 1 5q2 1 5 4zM1262 -242v0q-6 -3 -8 -6q-1 -3 -1 -6q0 -2 1 -3q2 -2 5 -3l-6 -6q-3 -5 -3 -6q-1 -2 -1 -3q0 -3 2 -7q9 -5 21 -5q14 0 24 9q5 6 5 13q0 3 -3 6q-2 5 -8 5q-4 1 -16 1h-8q-3 0 -4 2q-2 1 -2 3l2 3l3 3q4 -2 9 -2q9 0 15 5q6 6 6 13q0 6 -3 10h6
h3v0q1 2 1 3q0 2 -1 2v1h-3h-11q-6 3 -13 3q-9 0 -17 -6q-6 -6 -6 -11q0 -6 3 -11q3 -4 8 -7zM1323 -219v0v12h-3l-15 -6l1 -3q2 2 3 2q2 0 3 -2q2 0 2 -3v-10v-19v-8q-2 -1 -3 -3h-5v-3h26v3h-6q-2 2 -2 3q-1 2 -1 8v28q3 3 7 4q5 3 8 3t6 -4q1 -3 1 -9v-22v-6q0 -3 -1 -5
h-6v-3h25v3h-4q-2 2 -2 3q-1 2 -1 8v25v3v0q4 3 7 4q3 2 6 2q6 0 7 -3q2 -3 2 -9v-22v-6q0 -3 -2 -3q-3 -2 -6 -2h-1v-3h27v3h-6q-2 2 -2 3q-1 2 -1 8v22q0 6 -2 10q-1 5 -3 8q-4 1 -9 1q-4 0 -9 -1q-3 -3 -8 -11q-2 6 -5 9q-4 3 -10 3h-5q-3 -1 -6 -4q-1 -2 -7 -8z
M1430 -250v0q-8 -6 -12 -6q-3 0 -6 3t-3 8q0 3 3 6q2 3 7 4q2 2 11 6v-21zM1430 -253v0q0 -6 1 -7q2 -3 5 -3q6 0 13 10v3l-4 -4h-3h-2v3q-1 1 -1 9v18v10q-2 3 -6 6q-5 1 -11 1q-10 0 -14 -4q-5 -5 -5 -9q0 -1 2 -3l1 -1q3 0 5 1q1 2 1 3v3q0 3 2 4q2 3 7 3q4 0 7 -3
q2 -3 2 -10v-3q-14 -4 -19 -9q-6 -3 -8 -7q-3 -2 -3 -6q0 -6 5 -11q3 -4 7 -4t7 1q3 2 11 9zM1467 -178v0q-3 0 -4 -2q-3 -1 -3 -4t3 -5q1 -1 4 -1q2 0 4 1v5v4q-2 2 -4 2zM1471 -207v0h-2l-17 -6v-3q3 2 5 2q1 0 3 -2l1 -1v-12v-19v-8l-3 -3h-6v-3h27v3h-6q-2 2 -2 3v8v41z
M1504 -178v0h-3l-16 -6l1 -3q3 1 5 1q1 0 1 -1q2 0 2 -3v-11v-47v-8q0 -1 -2 -3h-6v-3h27v3h-6q-1 2 -3 3v8v70zM1529 -250v0q-3 0 -4 -1q-1 -2 -1 -5t1 -6q1 -1 4 -1t5 1q3 3 3 6t-3 5q-2 1 -5 1zM1593 -241v0h-1q-5 -6 -8 -9t-8 -3q-9 0 -14 8q-4 6 -4 16q0 9 4 15
q3 4 9 4q5 0 8 -3q1 -1 1 -4t1 -4q2 -2 5 -2t4 2l2 1q0 4 -6 9q-5 4 -12 4q-12 0 -18 -7q-7 -7 -7 -21q0 -12 7 -21q5 -7 15 -7q8 0 13 6q6 6 9 16zM1626 -210v0q5 0 9 -6q6 -7 6 -22q0 -10 -3 -16q-4 -5 -10 -5t-12 9q-5 8 -5 20q0 9 3 11q2 5 5 6q3 3 7 3zM1626 -207v0
q-6 0 -12 -3q-6 -4 -10 -10q-3 -7 -3 -15q0 -9 6 -18q7 -10 19 -10q8 0 13 4q6 3 9 12q3 6 3 14q0 10 -4 17q-9 9 -21 9zM1675 -219v0v12h-3l-15 -6v-3q3 2 5 2q1 0 3 -2q1 0 1 -3v-10v-19v-8l-3 -3h-6v-3h27v3h-6q-1 2 -1 3q-2 2 -2 8v28q3 3 8 4q4 3 7 3t6 -4q1 -3 1 -9
v-22v-6q0 -3 -1 -5h-6v-3h25v3h-4q-2 2 -2 3q-1 2 -1 8v25v3v0q4 3 7 4q3 2 6 2q6 0 8 -3q1 -3 1 -9v-22v-6q0 -3 -1 -3q-3 -2 -6 -2h-2v-3h27v3h-6q-1 2 -1 3q-2 2 -2 8v22q0 6 -1 10q0 5 -3 8q-5 1 -9 1q-5 0 -9 -1q-3 -3 -9 -11q-2 6 -6 9q-3 3 -9 3h-4q-3 -1 -6 -4z
M1088 1396v0q0 45 -16 85t-36.5 70t-36.5 47l-16 17l-16 -17t-36.5 -47t-36.5 -70t-16 -85t16 -85t36.5 -70t36.5 -47l16 -17l16 17t36.5 47t36.5 70t16 85zM1088 605v0q0 46 -16 85.5t-36.5 69.5t-36.5 47l-16 17l-16 -17t-36.5 -47t-36.5 -69.5t-16 -85.5q0 -45 16 -84.5
t36.5 -69.5t36.5 -47l16 -17l16 17t36.5 47t36.5 69.5t16 84.5zM778 1355v0q-33 31 -72 48t-74.5 24t-59 7.5l-23.5 0.5l0.5 -23.5t7.5 -59t24 -74.5t48 -72q33 -32 72 -48.5t75 -23.5t59 -7.5l23 -0.5l-0.5 23t-7.5 59t-23.5 75t-48.5 72zM1337 795v0q-33 32 -72 49
t-74.5 23.5t-59 7.5l-23.5 1l1 -23.5t7.5 -59t23.5 -74.5t49 -72q32 -32 71 -49t75 -23.5t59.5 -7.5l23.5 -1l-1 23.5t-7.5 59.5t-23.5 75t-49 71zM588 1106v0q-45 0 -85 -16t-70 -36.5t-47 -36.5l-17 -16l17 -16t47 -36.5t70 -36.5t85 -16t85 16t70 36.5t47 36.5l17 16
l-17 16t-47 36.5t-70 36.5t-85 16zM1379 1106v0q-46 0 -85.5 -16t-69.5 -36.5t-47 -36.5l-17 -16l17 -16t47 -36.5t69.5 -36.5t85.5 -16q45 0 84.5 16t69.5 36.5t47 36.5l17 16l-17 16t-47 36.5t-69.5 36.5t-84.5 16zM629 795v0q-31 -32 -48 -71t-24 -75t-7.5 -59.5
l-0.5 -23.5l23.5 1t59 7.5t74.5 23.5t72 49q32 33 48.5 72t23.5 74.5t7.5 59l0.5 23.5l-23 -1t-59 -7.5t-75 -23.5t-72 -49zM1189 1355v0q-32 -33 -49 -72t-23.5 -75t-7.5 -59l-1 -23l23.5 0.5t59 7.5t74.5 23.5t72 48.5q32 33 49 72t23.5 74.5t7.5 59l1 23.5l-23.5 -0.5
t-59.5 -7.5t-75 -24t-71 -48zM1124 1001v0q0 58 -41 99t-100 41q-58 0 -99.5 -41t-41.5 -99q0 -59 41.5 -100t99.5 -41q59 0 100 41t41 100zM533 233v0h-29q0 6 4 11q4 4 11 4q6 0 10 -4t4 -11zM556 208v0l-23 4q-4 -12 -13 -12q-7 0 -11 4q-5 5 -5 12h52v4q0 12 -2 20
q-3 9 -8 15t-12 9q-7 4 -16 4t-16 -4q-7 -3 -12 -9q-5 -5 -7 -14q-3 -8 -3 -17q0 -10 3 -18q2 -8 7 -14t13 -9q7 -3 17 -3q27 0 36 28zM573 182v0h23v114h-23v-114zM641 296v0h-23v-114h23v42q0 7 1 11t3 7t5 4q3 2 7 2q5 0 8 -3q4 -2 4 -7v-3v-2v-3v-2v-2v-44h23v49
q0 19 -5 26v0q-7 11 -23 11q-13 0 -23 -11v39zM759 220v0v-2q0 -7 -1 -10q-1 -2 -3 -3q-1 -2 -3 -3t-5 -2q-2 -1 -4 -1q-3 0 -4 1l-4 2q-1 1 -2 3q-1 1 -1 3q0 4 4 6q1 1 4 2q2 1 7 2v0q4 1 7 1q3 1 5 1zM711 242v0l21 -4q3 10 13 10q8 0 11 -2q3 -3 3 -8v0q-3 -1 -8 -3
q-5 -1 -12 -2q-8 -2 -14 -4q-5 -2 -9 -5t-5 -8q-2 -4 -2 -10t2 -11q2 -4 6 -8q3 -3 8 -5t11 -2q7 0 13 3q6 2 12 8q0 -2 1 -5l2 -4h23q-6 13 -6 28v13v12q0 7 -1 12q0 5 -2 8q-7 13 -31 13q-8 0 -14 -2q-6 -1 -10 -5q-4 -3 -7 -8t-5 -11zM824 182v0v27q0 10 1 16q0 7 1 10v0
q2 5 4 8q3 2 7 2q5 0 11 -4l7 22q-8 5 -15 5q-3 0 -5 -1q-2 0 -4 -2q-2 -1 -4 -3t-4 -6v10h-22v-84h23zM886 182v0v27v16q1 7 2 10v0q1 5 4 8q2 2 7 2q4 0 10 -4l8 22q-8 5 -15 5q-3 0 -5 -1q-2 0 -4 -2q-2 -1 -4 -3t-5 -6v10h-21v-84h23zM969 220v0v-2v-10q-1 -2 -3 -3
q-1 -2 -3 -3t-5 -2q-2 -1 -4 -1q-3 0 -5 1q-1 1 -3 2q-1 1 -2 3q-1 1 -1 3q0 4 4 6q1 1 3 2q3 1 8 2v0q4 1 7 1q3 1 4 1zM922 242v0l20 -4q4 10 14 10q8 0 11 -2q2 -3 2 -8v0q-2 -1 -7 -3l-12 -2q-8 -2 -14 -4q-5 -2 -9 -5t-5 -8q-2 -4 -2 -10t2 -11q2 -4 6 -8q3 -3 8 -5
t11 -2q7 0 13 3q6 2 12 8q0 -2 1 -5q1 -2 1 -4h24q-6 13 -6 28v13v12q0 7 -1 12q0 5 -2 8q-7 13 -31 13q-8 0 -14 -2q-6 -1 -10 -5q-5 -3 -8 -8t-4 -11zM1013 182v0h23v27l4 4q2 3 4 5l20 -36h26q-4 6 -7 13q-4 7 -8 13l-8 14q-4 6 -7 13l29 31h-30q-6 -7 -12 -13
q-5 -7 -11 -14v57h-23v-114zM1140 266v0v-20h12v-64h23v64h16v20h-16v4q0 4 2 6t6 2h5q2 0 5 -1l4 18q-10 3 -19 3q-5 0 -9 -1q-3 0 -6 -2t-5 -4t-4 -5q-1 -2 -1 -6q-1 -4 -1 -10v-4h-12zM1221 224v0q0 5 2 9q1 4 3 7q3 3 6 5q4 2 8 2t8 -2q3 -2 5 -5q3 -3 4 -7t1 -9t-1 -9
t-4 -7q-2 -3 -5 -5q-4 -2 -8 -2t-8 2q-3 2 -6 5q-2 3 -3 7q-2 4 -2 9zM1198 225v0q0 -14 5 -24q6 -10 16 -15q5 -3 10 -4q5 -2 11 -2q9 0 17 4q8 3 13 9q6 6 9 14t3 17q0 10 -3 18t-9 13q-5 6 -13 9q-8 4 -17 4t-16 -3q-8 -3 -14 -9q-5 -5 -9 -13q-3 -8 -3 -18zM1374 182v0
v52q0 17 -6 24q-7 10 -22 10q-8 0 -14 -3t-11 -10v11h-22v-84h23v38q0 13 2 18q3 10 15 10q10 0 11 -11q0 -2 1 -4v-8v-43h23zM1434 266v0h-15v29l-23 -14v-15h-9v-21h9v-33v-9t1 -6v0q1 -9 6 -13t15 -4q9 0 18 4l-2 20q-7 -2 -10 -2q-2 0 -3 1q-2 1 -2 5v37h15v21z
M1464 212v0l-24 -3q8 -29 40 -29q8 0 15 2t12 6t7 9q3 6 3 12t-1 10q-2 4 -5 7q-4 3 -10 6q-6 2 -14 4q-7 1 -12 3q-4 1 -6 2q-2 0 -3 1t-1 2q0 5 14 5q12 0 14 -10l22 4q-2 6 -5 11t-7 8q-5 3 -11 4q-6 2 -14 2t-14 -2t-11 -5q-4 -4 -7 -9q-2 -5 -2 -11t2 -11q3 -5 8 -8
q3 -3 12 -5q8 -3 20 -6q8 -2 8 -5q0 -6 -14 -6t-16 12z" />
    <glyph glyph-name="glyph100" horiz-adv-x="0" 
 />
  </font>
</defs>
</svg>
